<mxfile host="app.diagrams.net" modified="2022-11-22T02:26:25.344Z" agent="5.0 (Windows NT 10.0; Win64; x64) AppleWebKit/537.36 (KHTML, like Gecko) Chrome/107.0.0.0 Safari/537.36" etag="2aqkbKguljV9p618TVFA" version="20.5.3" type="github">
  <diagram id="l4ec8lFvfm07JVyhKFwd" name="PÃ¡gina-1">
    <mxGraphModel dx="670" dy="352" grid="1" gridSize="10" guides="1" tooltips="1" connect="1" arrows="1" fold="1" page="1" pageScale="1" pageWidth="827" pageHeight="1169" math="0" shadow="0">
      <root>
        <mxCell id="0" />
        <mxCell id="1" parent="0" />
        <mxCell id="AnFSswDuglorV6KRGRRq-1" value="" style="shape=image;verticalLabelPosition=bottom;labelBackgroundColor=default;verticalAlign=top;aspect=fixed;imageAspect=0;image=data:image/png,iVBORw0KGgoAAAANSUhEUgAAAnUAAAGtCAYAAABwcoKLAAAgAElEQVR4nOzdeZxU1Z3//9e591ZVd9NNr3TT0ICsNjuIIIggghBXRE10osavGsefySz5Gef3mzjfLJPJxMkkMYlxTDJRM36jcSWJCu4LiqIoIoLILosszU43Db1U1b33+8ete7sacUta6C7fzzw6dNdyq7rsqnrX55zzOcb3fR8RERER6dKs430HREREROSvp1AnIiIikgMU6kRERERygEKdiIiISA5QqBMRERHJAQp1IiIiIjlAoU5EREQkByjUiYiIiOQAhToRERGRHKBQJyIiIpIDFOpEREREcoBCnYiIiEgOUKgTERERyQHO8b4DItL1+b7f7mdjDL7vR/+Gp32S6x7Nh103+/qf5DIfdcxPcpzOoivdVxE5dhTqRKRDeJ6HZVm4rovjOFHwCMNd+H142ezA57ousVgsOt3zPGzbxnVdbNv+0Nv0fR/XdYEg4BhjsKyjD0BkByHP86LTw+u4rht931nDku/7R308QQFPRDT8KiIdJDs0pVIpoC28HXmZ7DDn+34U3FpbW6NjfBLh5T/uOk1NTR8IcuFXeD8/LAx2Vr7vt/udRES61quYiHRalmW1C0fZAe7ICpMxhnQ6HV3WGEMymcRx2gYPfN//yKCVTqexbTuqrH1UqAuPG1bpsiuGoSMDaGcVhrlPMmwtIp8vCnUi0uE+bMg0e66dZVmkUimMMRw+fBjbtnEcJxpOhY+ebxdW+NLpNBCEvA8LZbFY7EPPC4NdGEq7gvDxsyxL4U5EIgp1ItJhwoqb53ls2rSJxsbGD8wBM8bQ2trK9u3bo3lstm2ze/dumpqaomNlh7ujSSaTbN68mebm5o+t6oVVuHBY+ODBg2zatCmqFn5UIOxMkskkzc3NUaWuq4RQETk2FOpEpMOEFaTm5mZ++ctfsnTp0ii4QVvlbe/evfzrv/4rW7ZswfM8Dh8+zG233cbatWvbVfPC66XT6SjkhcfYvXs3//RP/8SSJUsAolDnum4UdsLwE54XLoiYP38+3//+9zlw4MAHhm6zh2azj+O6bjQHMPwKfw5vN7zt7MB1tNOybys8Rnh74e8ZXi/7+s888wyvvvpqdJwjF32IyOebQp2IdJhwSNTzPFasWMHOnTujAJQdjJqamnjttddoaGgAID8/n/PPP58+ffpExwmHZ5ubm6PglUql8DyPZDJJQ0MDCxcuZP/+/VFoO9qcPmgb9rVtG2MMmzZtYsmSJbS2tkbVO9d1jzofMLtimF3tC8NqMpkkmUy2C6/Zj0covF4qlSKVSuG67gcqhOFj1draGp2fTCaBYFHIK6+8wooVK9qFuq62wENEPjtqaSIiHcIY064FSRjkskNH9hyw7GFZy7JobW2NwlcY6NavX8+qVasoLCxkxIgRJJNJtm7dytSpU4nH49HxNm/ezMqVK/F9nyFDhjBw4MBoztmRbVGODF6WZbFnzx4WLlzIjBkz2LFjB2vWrKG4uJgJEyZQVFTEli1bWLlyJY7jMGLECHr37g3Anj17eOmll5g2bRrbtm1j69at5OXlMW7cOEpLS9u1btm1axcbN25k+/bt5OXlMXDgQE488cQPzCNct24dq1atwvO86HexbZslS5awbNkySktLeeKJJzj99NPp3r17NHwtIqJQJyJ/texwBm0Vu+zzssOU4zhYloXjOKRSKXzf57777uP666+nrKyMVCrFSy+9xG233UZzczOFhYVUVlYyfPhwli9fzhlnnBEdZ8GCBTz99NM0NjZy4MABunXrxo033sikSZM+cq5ddpVr8+bN/Md//Afbtm3j9ddfx/M8du/ezZgxYzj//PO544478H2fbdu2MWzYML73ve9RU1NDXV0dP/3pT9m3bx/PPPMMjuOwf/9++vTpw7/8y7/Qv39/LMti8eLF/OpXv2L//v3EYjEOHz6M4zhcffXVXHDBBdFCjocffph77rknut+e53HBBRfwpS99iaeeeop169ZRVFTEk08+yfDhw+nevXvU009ERKFORP5qR2vs67oumzZt4o033ojajoTDizt27KCpqSlqVHzo0CG2bNlCY2MjxhjWrVvHv//7vzNmzBjOOeecKBjdfffd1NTU0NraGh1r5cqVXHHFFdTW1rJnzx5+85vf8Ic//IGRI0dSVFQU3a+P0tLSwtq1a1myZAlz5syhqqqK119/nVtuuYWmpibOP/98ampqWL9+Pb/+9a9566236NOnDwcPHmT79u08+eSTXHDBBQwcOJD3338/ug///M//zP79+7nnnntIp9Ncd911dO/enYMHD/LQQw9x5513MmXKlOj2fv7zn3Paaadx5plnEovFWLhwIXfddRcjRozgoosuYtWqVVRVVXHVVVdRWVmJbdta/SoiEYU6EekwYXiybZuWlhbuuecennrqqWi+Whj4Wlpa2L17d1SRyq6mpdNpnn/+eZqbm7n22msZPnw4ACeeeCKLFy8GaDe0esopp3DhhRdSUVFBKpVi27ZtPPLIIzQ3N9O9e/ePbYuSXWUcPXo05513HolEgl69enH77bdTWVnJnDlzKCgoYOzYsTz00EOsX78+GtZNpVKMHz+eiy++mKKiIpqbm0mn09x7771cffXVFBYWMnXqVPr27cvJJ58c3e/6+npuvvlmGhoaKCsrY/78+TiOw3XXXceAAQOwLItBgwZRVVVFjx496N+/P1VVVfTt25cJEyZ84DEXEVGoE5EOk71yNJFIcO6553LGGWe0m1tmjGHHjh3cfPPNQNtcPGMMjuOQTCZZsmQJI0aMYMiQIVEY7NOnD+PHj2fp0qU4jhOFmZEjR1JRUYExhkQiwbBhw5g7d240vPpRoS57Zwnf9xk3bhyFhYV4nkdxcTHl5eXU1NRQUFCAMYb8/HyKiopobGwEiPrknXHGGVFVsKCggJkzZ3LHHXewf/9+qqurmTlzJs3NzWzevJk9e/awceNGnnzyySjkplIpVq9ezciRI+nXr190n3v16sXf/M3fkJ+fH50WNlLODqQiIqBQJyId4Mg+dL7vE4vFGDduHLNnz/7AZdevX88vf/nL6OdwKDUMYQ0NDQwZMqTd9dLpNNXV1R/YmSIvLy8ahgx/Ds/7uNBz5Hy/oqKidrtcOI4TrZjNrkKGASu8v8XFxdHCENu2SSQS2LbN4cOHaW1t5YUXXuCJJ56guLiYnj17AkRBMfzdW1paKCkpiUJseDslJSVA0KMu3A83/F3DsKxwJyKgUCcinUT2kGqvXr3YsWMH6XSavLy8qJLX0NDQqfqyhat79+7dSzKZJB6P4/s+Bw4cIBaLkUgkWLNmDXfccQdnn302p5xyCoWFhXTr1o3XX3+dhQsXRotK4vE4DQ0N0WrWsDHyr371K/r27cvZZ59NKpWK5ieChl5FpD01OBKRTiHcDzYvL49Jkybx9ttvs2TJkijcrFu3jscff7zd1mDHW1hpe+GFF2htbQWgvr6eP//5zxQVFdG3b1927NjBxo0bOemkkzj11FMZOnQo8XicN998M6q4xeNxxo8fz+LFi1mxYkV0/OXLl3P33XfT1NQUVeaampqiYJu9f66IiCp1ItJppNNpHMdhxowZPPnkk/zkJz9h0aJFpNNptmzZwuHDh6msrOx0Fap33nmH7373u/Tt25f169fz9ttv881vfpP8/Hz69etHUVERv/jFL1i8eDFNTU1s3bqVlpYWioqKSCaT+L7Pl770JRYvXsy3v/1txo8fTywWY9GiRfTr148JEybgui5lZWU8/fTTlJSU8MUvfpHq6uoP9OETkc8vhboO9kmbCxjAp/MMI4l0HB/btjix9kTKy8s58lnh45PIizNq1Ei6FXYLLu9YDB48mJLSYnzfo7pXNTfd9C3mP/447767kvz8fKZNOx3Ltkglk5m5cwnGjh1DWVlp9Fzy8SkqKmTo0KE4jnOU51jbAoRRo0YSj8cgc52TTx5Ht27dMtfxM42Gh1NZ2SO6njEwaPBAetf0avttfJ8zz5zBzl27WLZsGcXF3bnxxm8yc+Ys8vODJsP/8i838fTTz7BkyRKqq3syefKpDBw0kD/cex9NTYexbYsT+vfj+9//V+Y//jhr1qzBABMnnsKcOXOoqanBti1mzz6furodLH1rKWecMY3evXtl7pmP/4lffUQ6C4Ohc31A6+qMryZHHcrP+vfIBzZ7kCQIdZ1jCEmkw/jB373ruqxfv54ePSqoKK9ofxkT9oVbx4ABAygqLCSVTrNhwwZ69+5Nfn4ebyxZwvbt2znppLHU76/Hsi369+/PN2+8kZLiEn72s1toaWll9apV9OvXj/KK8uCGDRw82MjWrVsZMngwsXgseiJmzsYHdmzfzr79+6k98URi8TiNjY2sXbOG2qFDKSoqxPeDFalr166lqrKSHpWVGMDzfd57bwN5efnU1NTw+uuvc8455/Lwww/Rf0B/9u3dR2G3bvQfMIBEIhHcnu/T3NzM1m3baGhooKioiF7V1eQX5LNhw3tUVVZSXl6Oj4/BsHPXLurq6vB9n+rqaqozCysAmlta2LxpE03NTQwcOIji4mI6WdFSPue8T/HhwsJRqOtgCnUdzD/i32wm6wxV6kTa810P34Cbdpk37zF+9J8/4uYf3syoUaPBwFtL3+JbN/0zN33rJi659NJOMQT7xuuvc/bZ5/DII39m8mmnAeB7HrajQRD5nPo0iUIrtzucXnk6mEcQ2KI/Uz/zf8bHHPHHblxNcBYJ+T4YFxxjGDPqJKZNms6D9zzEg9bDeGmPWCzGpRd9mdMmTgXXYEwneP6kLRJWHpbrYNIGjMHyLT235XPsUxQrNBW0w6lS18FcPnmoI6UXfpGQjw8pMDFINqfYuWMn23Zso7mlGd/3KSoo4oSBJwTz9FyDk3/83xH279/Pi8+8yOnTT6esuAwSBM9zVR/k88p8ilDnGD1XOphCXQfLDnXBcGsw6TqYbJQJcZk/4mZfc+pEQh4enuth2Ra4mXYhxo8mw2U3NjaewXKO/4ciD490Sxon4WA8Q8qkMBhiVux43zWR48L6FAOAMQOWQl2HUqjrYG2hzsfgB6HOy7wrGQswuJ7BsiGFe3zvrEgnEqzf9DLr4Ux0WiBc4mDw8bHa18M/ycGD4d3MVXw/83TsgPtsCCaHWxjSnotlDJY5/lVEkePBmA8pVnhe8ASMnnw+toljqV1uh9Kcus9K1oqJYATW4LppjO3gYfA8iOkTikgWw2fVD911PSyrfRD0Xa8DGve2fw47JhNI9VFZPq/8jyhWuJkGPJYHrotx4p/qs5l8PIW6DvbBv8+2NxLf2KRcg7HBNxDT6leRY8J3UxjbwXe94NloW3jpNKaDh0nD+qLI55aX+MBJ4XhgOK/cTblYltPWZ0g6jEJdBwvblrT9nVp4vo9lwDWGV15bwba6XaSx8GO9PvQ4ItJxLGPhei5k5uV5vk/McXA70T6yIrnAN0er1Bl8z8P3fXzfo6iwkDPPHEQPoxDS0fR4ftaMCSZ5G/B8w+ZtO6nbe4ATBvTDWPHjfe9EPheM8XFdi9dff4OKinL69z+BWMxBM4pFOpZ71Dl1Pp4LluOw9f2t1O3axsyZg475ffs8UKg7BoyBVAqIA7ZNfkE+4yeOpFhNekSOCd/32LNnH/fc/hjxESOYdP5JdO/e/XjfLZGc4x5lONWLqnTw8qFN7NixiyLzWc2g/XxTqOtwLmBl9koyNDspbGNhWzYOLq1eCZ7TjZriQuKqEoh0ON9v263Ftg2uC76f5oWnF7Onbgvvuk00NVzECb174GNwbEi7frTiVh3uRf5ylh+0YHUtiLuQspNYrkM85dBie3j5VeyzDHmkMYogHU5BucNltWDwDWnj4eFjW2Dj4/pxfFOABl5FOp7ntW30alvgpj0MPs1NzTz11NMA7Nmzlz//+REsK5jn43lgZTotBF/6tCXyl7Ky9loOvg+eg45vsIxFyiqkyRRjZ9oBScdSqBORnBJ2KfF9g+t6GAOvvvoaGzZswPM8XNdlwYIXWbVqNZZlSKVcfN+0u66ISFeklzARyRnGmKjBsOf5OI7F3r37+MMf7qepqQnf9/E8j4MHDzJ37p9oaWnBtk1UndPIq4h0ZQp1IpIzjIF02svaOcLjhRdeZPXq1dFcOcuySKVSvPbaa6xbtx7HCbrbB1uQfcqdKkREOhGFOhHJGb4fLJDwvGClXX39QV544QVc142qcb7vY9s2e/bsYeHClzOngZoGS0fyvKx9vz+TYwP4pNN/2R7inudlHaf9cbPnlUbzVKVLUKgTkZwRDLkajDHYNixZ8iarVq3CdYOGqEFbhSDUpdNpnnzySd5/f3umwpfG89JRMBT5a9g20ZzOVCqVCVF/fUAKAlfwlUqlse1g9+EjA9pHCS9rWUF1O5hr6mFZbecF27R+uuPK8adQJyI5w7KCfZV9P5g39/jjT9Dc3IzjOMRiMWzbJpFIkE6nicVi1NXV8eCDD9Hammw3H0/krxUswAlCUbDHcMdVvCwrmAcaTBkA13U/9d9uEAbbKnFBoHPbhTnfJ7NnsnQVCnUikjOiPSaN4dFH57F8+XJ836e2tpZrrrmKWCzGiScO4bLLvkxVVRV5eXnMnz+fFStWZN549QYmHcP3DZYVrMB2HCtTIe6Yvy/fDyppwXHBmE/7t2uiKQqWFVT/XNcjmXTxPD/6Cj4kafi1K1HnPxHJKa6bZu/e/bz00kIqKyuZOnUqEyeewsCBA7jvvgfo06cPV1xxBSeddBLPPfc8K1as4NVXX2XcuLE4jrYOk45h2+ECHDLz3gypVArHif3Vx06n09i2jWUFUw2Cyt0nv74xBtd1cRwb120bio3F7KxjBZcJfg/pKhTqRCSnWJbFoUOHmDJlCgMH9ufEE4dSUVEGkJlr51BVVUVFRQV9+vRh69b32b+/nlTKxXFiGoKVDhGutg4W6Xg8+eRT5OcXMGvWrA44toXn+TQ3N/Pss89RWdmDiRMnYswn23oymEcXVOKSSZd43GHXrj3MnftHzjvvPPr2rcF1vUy7H7X66UoU6kQkp1iWTWVlJeeddy4lJSWZYdW2CeHh97ZtM2jQIPr3P4EDBxo6pIIiEjGZvomWRTqZ4s9//jPVvaqZMWM6tm3jeX6mytZ2lXTaxfeDipnreni+j2NbQWXNC3YmcjP9F1Npl9ZkKw88+ADjThrHuHEnk5cXHKylJUUi4eD7JjNPLqga2raVCXE2lm1Ip9MYy+DjU1dXx6233sqw4cM44YQ+uK4f7AphAXiZ/R98rMw8viDsKe11Ngp1IpIzLCuYY1RUVPQxl2xbFOE4MXr0qGg7R+9T0kHCDw+tvs/evXvIL8gjnXYziw8Mvu8RLMwOm18bjPEz890yc9p8D9O2MzHgRytgPc+jrq6OhoMNuK6bWdzgRc+D4GcfyyK63SAgehgTzKmzbQvfC1qjvL9lM+lUEtcL5gGmXRcrM4zsusEcvnQ6rWkKnZhCnYiIyDHiuh6u6/PUU0/iptNMmXo6c+c+zDvvvMMpp5zCzJkzqarqEbQYweC6aVauXMWzzzzD/v37GTFyBOeddy6lpaVA0C4FghYq9fWN/Pa3v+Gss85h+PBhUYh7+eVXWLDgRa6//jpKSsowls3u3Xt45JFH2Pr+ViZOmkh5eTm24+DjB/sh25BMJlm05E1eXvgie/cd4LTTJjN9+gwqykvx8aOoKZ2HQp2IiMgx5PuwbNnbvLV0KWvXrWfbtm0cOHCAP/7xT7z77ipuvPEGSkqK8Tyfxx6bx7zH5oExJBIJnnnqaVavWs3Xvv418vPzM0O4QWUumWzhsUfnUVs7jJEjhxMudti8eTNzH36Yyy67lO7dS1i7Zj233norBw8eJC8/j1deWYRtW3h+W/XuYOMh5s59mOeee554zMaJxXnssXm8885KrrnmKvr06Xe8H0Y5CoU6ERGRY8SyDI5jSKdSbNiwgTkXXsgZZ0zDGMOSJW9y+3/9F9OmTWPWrOls37qd++67n0mTJjF1ymnkF3Rjy+bN/J/f/55Fi15lypQpxOPxzJCoTTrtkk6naW5ujhpth21JkskkqZSLbdvcd9/9HD58mK9c+RV69+rF/gP1PPrIIwBRE+Jly5Yxd+4fmTNnDmNGjyQWz+P9LVu463e/Y+7cIv7u7/6evETecX405UgKdV1I9lZG4QTVsAHlR1+v/XWOdl4oaGb58cf8uNtoa4wZvrBYn/j+iojkKsuyCXvKlZWVcc4551BRUUYqlaZ79yJ+9tOfsm/fPjzP8Prrr1N/4ABXXH4ZFT16EIs5DB48mLLyckpKijMtSVwsy8LzTGa1qo/j2BgTNikO5o96mdfodDrNG0uW8NWvXsOMGdNJJBKkUika6uv579/8Jph/l0rz+uLF2JbFtGnT6N69EIOhuLg7I0YM54n5j3PF5V8hr0qhrrNRqOtCgk7fwXyHYJJrsJrJ87zMBNtg4m0QmkzW6XzMpNbsff6IJtB+0vAVdB/3o35GbZNzTVYQDb7CFxgRkc8zH6jq2ZOKilLAEIvZFBYWZRYhBK/da9asobS0lPLyCmzLxrIsEok4p546Ec/zOXCgvt3OEmCwLSvaD9a2LVIpL1j9mnk/qK+vp6mpiaFDhwYtfCBoyl1bi+95wcpcH9auXcv777/PT378Y2JxB98LtiXbunUrdXV1HDp0iKqqquP3AMpRKdR1EdkNLMOtW4wJSuXhXpbG+FFgCruXByGt7bQjg1p4jLbVUi6OY0XL7T8p2zZRE8uga7qJVl/ZtpVZAq8qnYhIuM1XIh7HsixcNwhgtu1kqm7Ba3K7JsOWRWtrKiu0+XieG42C2DYkk2l807ZbRLBVWTBS4sRigE9LSwue65JIJABw3eC9wrIsYvE4qVQaz/NpPHSIE/r3Z9asWRgLUqk08ViMtOthGUNFRcWH/4Jy3CjUdRFtgaitr5Hnufi+HW09E1bX2sJV0N8oCGgfdmQTvSik0y6OYz4wJPvx981gWeHwa1DtAy/TvDIYaghuX4FOROST6tOnD68uWsShQ4foVliEZRlS6TT33fcHYrEYM2bMiKpyrusRizlYBKtWLcuQTnsYA3V1dcFYiQ8lJcUUFBSwYf16Bg4cACYIdrt27cp8CLcxQL9+/di+fTvnnnde0NfOCnrnvffeRg4fPkQ8Hj+eD418CO3/0UWE1TRjDAcPNvKbX/+Gb/zD/8s3v/lNvvEP3+Ab//AP/O///W0ef/xJGhoa2m1sbsImmEdJdl6mpG5Zhnnz5vH739+D6366ilrbRcM5dNDS0sKKFSuiSbfh+SrUiYh8MpMmTSKdTvPggw/hplN4nsd7773HAw88yOHDTeTn5xOLxYIP/ZYhPz+f8ooKFi1aRH19A77vs27dep564gm8dBpjLIqLuzN+/HgeeOABNr63Ecsy7N+/n4cffgiPoIAQiztMnz6dDevX8+c//zlom+IH4fDH//mfzJ8/n2QyebwfHjkKVeq6iHAFUzDsavHUU0+xYf0GyisqojlzsViM1atWs2DBAq688iuMGDEiszwd0mkvqshlC5pjWqTTLm8tXcru3bu58sqvZObIffL75/tBU8yg8md45ZVXeeWVRQwdOiwzaTccNv64+X0iIgIweNBAzp89m6eeeoot72/BcWLs2rWL2toTOfvsL2SGSoORGXwoKCjgrLPP5oH77+c73/ke1dXVHD58mN41NWzdtg0IdqOYc+EcbrnlFn7yk59QXd2TpuYWtm/fkRlmCeZjT5gwnpmzZvHwgw+ybNlSiotL2bVrJ7t372bOnDnk52uRRGekUNdFBNu8ePg+xOMxmppbmHL66Vx6yZew7GApuzEea9du4MUXF3Dbf/0XP/jBD+hR0SPrIEGzyHDxgut52Jnqn+v6tLS2RseKxYItk4JyvMna9NkKuo3bQSneJ2tBhPExBN3LN23axObNm3BiTtt5BjzfYBlwo+2aTLTtjIhILvEzeSvmxPjiF79EcUlx9Ho5ZcppjBg+PHrt8zOh7KvXXsvw4cMBiMcTXHrJpZzQ7wS2bduG67r06dOHSRMnUdO7D01NTXz5b77MwIEDsSwb27a54ILZlJYUs31HHQUF+QwbNozzzjuXUaNGUV5ejufBqJGj+Md/+EdWrFjB4abDVPfqzZlnnsmw2loG9O8PGEpKSvnba/+WVxctom7nDizboax0GBdddDHjTz6ZWEzDr52RQl0Xkr3Cyfd9+vbty7QzzsAYkwlihnHjTqasrJTv/9v3ee6557j0kktoaXVJp12WLVvGiy++SN2OOgYNHszpp5/OiBHDcGwnOn6ytZV3313N888/x8b3NjJl6hROPfVUTjihD6lUGh/YsWMHS5a8wZIlb3Lo0CFKS0s4Y9oZTJw0CccOqohz5z5M3c6d3HTTTXz1q19l8OBBNDc3sXz5Ozz33LM0Nh6ib9++zJo1ixOHDMGybC2iEJGc5DgxLrjggih4QTC06gZ7hEXTUgoK8vnKlV+hsLAwc01D7969Oe+882hsbMR1XfLz8+nWrRvGGLp1K+SSSy4hHo9nFssFl7/woos4dOgQAIWFhViWxeDBgzO7UATDtJMmTWLEiBG0trYSj8fp1q0bY0aPoaSkBNuy8f1gXl1VVRWHDh3C9VwS8QRFRUXR7yCdj0JdFxKGujD8ZIegsJ1IcXF3Jk+eTM+ePXnmmWe4YPZsYvEYc+fO5dlnnqW6Vy+Kioo4cOAA//3f/82cObOZfsYMYjEHA7zzzjv86U9/Ih6PUdS9kKeffoYlS97kppv+mZKSEvbs3s1vf/tbUskk+QUF2JZh3779/PKXv8TzfSZPPpX8ggLy8vJIJBJ069YtWs11771/4O23l1NWVkZhYSHbtm7lv267jf911VWcPO5kvVCISM7I3q3VWIbS0rJ252fvTxy+lNu2TY8ePbJOD85IJBLRatUjlZeXt79dE4S2/Pz8dtDKHJkAACAASURBVKdnHze8rZKSknan9ezZ8wP36WjHks5LoS4HBO1LyLQNMZSWldK3b19WrVpFc0sLe/buYe7cPzJr1ixmzpxJYWEBe/bs45FHHuFnP/sFo0aOpqysDIzh4MGDDB1ay8knn0wsFmPZW0v5tx/8kFNPncSFF17I1q1b2bhxI1//+tfp3bsXtmWzc9cubrrpJp544glOO20yEyaM59TJk1m6dCn/z3XXUVJayubNm3n00cf4yhVXcMrEU7Asm0ONjdx5553ccccdDBs67BNswi4iIiIfRqtfu7hw4YHr+nheMDnDsW1isRjNTU14nsuqVavZtm0bgwcPprHxIHV1O2lpbqKyspK3li5l/fr1OE5QJRs5ciRf+MIsBg4cQE1NDdNnTGfAgAG89NJCWlpa6N27N3//93/H+PHjqa7uSbfCbsTjMQoKCti5cycAiUQepaWl5OfnU1VVheM4LFr0KvX19fSu6cXBgwfZt28vLa2t9OzZk+eeeYbt27cft8dQREQkF6hS18UFq1QNmakZWFawuKG5uZmKHj0wxrBu3Tq2b9vGrb/4Bfg+xrbB9zjYcJBUMsmePXuxLBvPdRk4cCBlZSWAhW1DQUEhQ4YMYcXy5bS2tlBVVcXBgw387Gc/Y9/evRw6fJgDBw6wbt06Jk6ciOd5xGNtf1Z+pkHmu+++y7atW/npj3+CyazCNZbF3t17OHDgAHv37j0Oj56IiEjuUKjrQtLpthWjJvNv2Hk8bHni+1BfX8+mjRsZMXIkiUQC3/epqqzki1/8Iol4HCyD8f1oL8Bx407C98OGxTa+H6yItW0yx/Qzt2GxatUqbr/tNpLpNL1796J3TQ3du3enoaGhbVuyTGhzHCcT8mK0tLTQp08fLrn0b7AdB8sEoc5NB4svBg4aeDweUhGRz0S4Ww/4mR17fIyxMq+1BmOCFlBBk3arXQeAYC6dj+u6mZZTQZcBywpO9zwyOwaFjeWDCXDha3CwS4QVHSvoYkDmw7+fWVznEYtZuG7bNpPBcfzovgQjQSazo5GL49jtdgfS4rbOR6Guiwi2iwkaCruu2+7JFAy/ejiORXNzkiVvvsnevXuZOnUq+Xn5DB06lILCQiZNmsTQYbUkkykSiTjr1q3ntddeI9zSKx6Ps379elpaWigoyKe5uZXGxkZWrVrF0GHDMMbi0UcfZevWrfzrv32fyspKSoqLSbtp5s+fj+u6mb1p217EwGAsw5gxY3h35UrOO/98SkuLSadcYjGbZW+vYO3aNVokISI5JZlMEYvZtLamicfjeJ6bCWAelmVHjdotK7u5fHhtPxMITdQzNJVKk0g4eF7wfuD7VmaLMR/HadtVCMI51n4msAWvw9HrcSYEBu8nXub1Oux1amhtTWFl9pmFIJymUmliMYt02ot2MAp3n5DORaGuiwieX8GnO8uy8Hyf+vp6tm7diuNYJJMenpfm1VcXc//99zFt2jSmT5+ObduMGjWKnlVV3H333Vx+xeVUVlbQ0tLKnXfeycaNmzht8mnBFjCex8qVK7n//vuZNWtmZpeJJ9i3bx/nnHMO+fl5NDU14XoeJSWlJBIJ9u7bx6JXXmHdunWMHj0680kxqPjV1dVRV1dHz6oeTJ06lT/+8Y/cdtttXH75ZXQvKmLX7t387ne/o7m5mS/MOut4P8QiIh0mqMpBLOawc+cuHnjgAa677joSiXi0rWKwyC3oDhAGMs9zASuqzCWTaWIxG8ex2LBhI//xw/+gqHt3vvb1rzNkyMDoOGH1bufOXfz0pz/FshxuvPFGmpoOc/tt/8UFF87htNMmkU77xGKGZDKJ4zhYlmHv3n3cfvvtXHbZZZSXV/DzW37Knj17gt/DCvYCdxyLficMYOrUKZx00hgSCa2I7YwU6rqIsDIXfPpysS2Lp558knVr1mDZFp7rEc/LIy8vj0GDB3P1VVdS2aMHxgo2Xr7yyit5+qmn+OUvbyPm2DixGA31DVw4Zw7V1dXYtoXrugwaNIjt23dwyy0/p6WlmZaWVi6//DLGjh2D4ziceeaZvL9lCz/84Q/p1q0bRUVFFBcXM3LkSHbs2MHhw00UFOTTt29fmpqa+OG//ztfvfarjBo1ki9/+W947tnn+PGPf0JeIk4q7WKAc84+i6LuWvkqIrnDcWxcN50ZDnVJp5Ok02ny8uK4rp/ZwtGKdgpqq5pZmV2CgiFOx7GirRsbGhr5w733Uti9O6NGj2bAgP6Zap2XaR3ls3z5Cv7nd3dTVl7OtddeS0FBPosXL8Y3hrFjxxCPBztBGGNlgqfPkjeWsGDBi1xzzdUkk608+uhjOLEYo0aOAMvGsQzpNKx6911effVVrrjiMi666OKj7lIkx5dCXReRTAYvBr5vkUg43PhP/8TePbtIpVws2yLVmqSgsBu9evWkR2VPBgw4AUzwyc0yDtNnzKD/Cf1Yt+E9Yo6Nj6FXr2pGjRxBXl6Cw4ebuPyyS2lNpsnLy2fz5s14nktpaRmjR4+ge/ciUqk0E0+ZQF5egp07dwFQXFxEdXVvzj7rC2zesoX8/DxaWloZd9JYvv3t/03jwUaqe/bEth1mzfoCw2pPpG7XLlpbU8RiMfr26UP//v2JOfpTFJHcEc53BqioKOPCCy+iW7e8KLS1tgbz3IyxoypbMP/N4PselhUsgDPGwrb9TFXPpqCwkBNPPJF58+Yxe/b59OhRRktLUOlLp9MsWvQqw4cP59Dhw3ieR3l5OTNnzWL+vHls3fpVBg4chOd55OU5NDUF+8k+/sQTDB82jJqa3uzYEby2jz3pJL55wz8SiyfwMkPBDQ0HuPXW27jnnj8wZcpUevXqdRwfYTkavZN2EXbWrg+WFWPmzBkAUTPi8AXEGIPruZmtaHx8L3hR6N69O6PHjmX4iJHE43HSrottmaihseM4jBl7EsYE+8COHj0y+gQZTvB1HId4PMakiZMgs1gjmFcbTK4dNWo0mGAYoLS0jJkzZ7ZNDPZ9elRU0LNnFQZwM+1XwgnB4URfEZFcELy2BhW2AwfqeeSRR7n++uvo1s1hwYKXeP7555k27QzeeWc5O+t2EU8Er63TZ0zPbMEVzl0LFkOEVbV4LMbp06Yxd+5cNm3aRFlZCZYVzJHbu7eejRs3cuFFFzF37lwsyyIvL865553HQw89xJIlb1Jbe2JmHnbQtH7durUseuUVvv2d72BZDmHxraKigsFDaunWLZ90OnhPSafTTJ8xnZ/d8jPq6+sV6joh1U67iHDVEYSTYYOVSuGwbLhFjO+DbdkYLAwWvh+cZhkDviEeD/brC7YGszIrm6zM6cEk2ljMyWzbZWWCokUwsdYGTNYE2uCY4aopy7KxjE3MiQX3zzcE/7OwLBvHccA3+H5wDDuzNZhlNNlWRHJL22pSqK9vYMGCBTQ3twI+69dv4K4772L+vHn06FFF7dBa0mmPX//6N7z99gpsOwhQ4TF8v21lqgHGjBnDCSecwFtvLcvMdwter1etWk0ikeCkk07KWkxnqK2t5ZSJE3n55ZejTgdBb1OX5557nvyCAsaPPxljwLJsMOHrfLgKN2yd5XHo0GFisZiGXjspVeq6lHDlUvD9US9hsr9vf5lgOfxHnd/+SRouic++XngdK9qq7MhjtW1hdrTtzI5cAW9UoRORHHW011zf90mn03iuy+jRozn33HPIy4tTV7eLv732b1n+9ttMmHBy+w/PRygvL2fWrFksXryYq676CpYVx/PSLFy4kNGjR0X7swarZIM9ZWfPns0tt9zCtm119OlTgzGwf/9+FixYwLnnnpupurW9B+zevZt33lmeGf4NPvyvW7uOeY89xqRTT6WiouIzfezkL6NQJyIicox4nk8ikaCkpIRJp06ke/cibNti4MD+9OrVi0OHDmVGMz78GI7jMH36dBYsWMD27XX07duHurqdLFu2jG9965+zqnxkWpoE1b3CwkKeffZZrrrqf2FZFu++u4pDhw4xe/Zs4vF4tEAD4JWFC9mxbSuWEwPfxXHiFBYWMmzYMC6/4rIP7BsrnYNCnYiIyDESjID4xBMJCgryM/09g4UIxcXFWf0+4Wht4HyC4NW/f3+Kiop48cWXuOKKy3nzzbcwxnDCCf3ZuXMnvu/jOA6+HzSSLy8vZ9KkSdx3331ccMEFVFSUsGDBi5x44okMHTokOn4wrcanduhQLr74QjzfYFsWibwYZWXlDBjQn549e2n4tZNSqBMRETlGwh0ZYrFYJnDZmUa+pl117eN2aygsLGDs2LHMnz+fs846i6efeopp06ZRVlbK3r17M73v/MziOsjLS3DGGdO46667WL16NQMG9Gfp0qVcffVVJBJ5WXO2g2+GDhvGly+7HMexMgvl7Gj3Cc/zPtPHSP5yitoiIiIdzBiiZuxhO5K2JsMG3wuqc+EiB8cJ5sC5nhfNxQuGUcMjBnPxyMzLi8VsTj31VJYuXcrzzz/Pzl27mD79DGKxGM3NzdGcumA/cIjFbIYNG87YsWNZuHAhzz77HL7vM378hHZznX3fD/oRZE6Mx2OZHYLCOYEmWpgnnY8qdSIiIh0sqJKR6TlnZfZxtQkGUMHLDLMG7UqCLgVkqmBBNY+oKbFtG1Kp9BFDnoZBgwYxZMgQfnfXXdQOHcrAgf2j44VtrsKGxp7nUVZWzOWXX87//M//EIvFmDx5MtXVPQkLb9lbULquG+0pHnRACBfAZW5dma5TUqVORETkMxAOZQa7RbT1EjXGYCyLWMwmmUxHQ5+hMAyGW41F1T0/aGniODae51NaWsx5553H2rVrmTRpEnl5wdZdtm1HQ6/B/Qiu77oeM2ZMw3VdtmzZwplnziAvL04qlSZoXRIEuXgsRjKZBCCVco/FQyUdRJU6ERGRDuZlhlHTaZfevXty4403kJ+fh+/7TJkymbLSUoqLiwE/qsRdeeUV5Od3w/PaUp5lmWgIt2/fPvzi1l8wZMhgIFh0MWfObKqqKpky5TSMCW6vf/++fOtb/z+VlZXRabFYULUrKyvl//unGznc1ERt7VCCIeCgvuM4FsXFJXzne9+jpqY6s6hDJbmuRKFORESkw5noq3v3YmbNOpNkMhhyHTJkMAMGDMw0GXaBYPeeU06ZmKmwtVX4bNtkmsQbysvL+dIll2Tt9mPTr19f+vTpC/jR7hMVFWWcddZZWeHQj3YOSqddzpg+DdsOvg8rh+m0h+MYCgrymTNndlQN1DBr16LhVxERkQ4WNWrP7JzjukFAszLbM1qWySxAaNuRJ5wPZ1lW5gtct22labhtY/BveDtEq1HDJsHhkG24ojZ7GNayLGzbprW1NWtFazhHzmQWdTiZsBnsPCFdhyp1IiIin5G2sGSw7WD/1mAlaRDoHMeJFkpk7xgUfO8DwSrZcMvGtnYnfua4bVuSBQHOw8vs+R2Gv3CrxyDoWe1OC2+vbai1bYVu+12MpCtQqBMREelgbT3ngp/DtiBtWymGp2f/fGSICvfcpl1bkfC8MLSFxwgrcRBU6ULh+dkVvnAf8GBRRfb9sqLTs38P6Ro0/CoiIiKSAxTqRERERHKAQp2IiIhIDlCoExEREckBCnUiIiIiOUChTkRERCQHKNSJiIiI5ACFOhEREZEcoFAnIiIikgMU6kRERERygEKdiIiISA5QqBMRERHJAQp1IiIiIjlAoU5EREQkByjUiYiIiOQAhToRERGRHKBQJyIiIpIDFOpEREREcoBCnYiIiEgOUKgTERERyQEKdSIiIiI5QKFOREREJAco1ImIiIjkAIU6ERERkRygUCciIiKSAxTqRERERHKAQp2IiIhIDlCoExEREckBCnUiIiIiOUChTkRERCQHKNSJiIiI5ACFOhEREZEcoFAnIiIikgMU6kRERERygEKdiIiISA5QqBMRERHJAQp1IiIiIjlAoU5EREQkByjUiYiIiOQAhToRERGRHKBQJyIiIpIDFOpEREREcoBCnYiIiEgOUKgTERERyQEKdSIiIiI5QKFOREREJAco1ImIiIjkAIU6ERERkRygUCciIiKSAxTqRERERHKAQp2IiIhIDlCoExEREckBCnUiIiIiOUChTkRERCQHKNSJiIiI5ACFOhEREZEcoFAnIiIikgMU6kRERERygEKdiIiISA5QqBMRERHJAQp1IiIiIjlAoU5EREQkByjUiYiIiOQAhToRERGRHKBQJyIiIpIDFOpEREREcoBCnYiIiEgOUKgTERERyQEKdSIiIiI5QKFOREREJAco1ImIiIjkAIU6ERERkRygUCciIiKSAxTqRERERHKAQp2IiIhIDlCoExEREckBCnUiIiIiOUChTkRERCQHKNSJiIiI5ACFOhEREZEcoFAnIiIikgMU6kRERERygEKdiIiISA5QqBMRERHJAQp1IiIiIjlAoU5EREQkByjUiYiIiOQAhToRERGRHKBQJyIiIpIDFOpEREREcoBCnYiIiEgOUKgTERERyQEKdSIiIiI5QKFOREREJAco1ImIiIjkAIU6ERERkRygUCciIiKSAxTqRERERHKAc7zvQMj3fQCMMe2+P/L8I08XERERyZadGaAtNxyZL46WLXzf/9CccbSscqQPyzHHQqep1Lmui+d5eJ4XfS8iIiLyafi+H2WIMFyF+cL3/ej87O/Dy2Z/fdzxsy8Tfu+6brtjHmudolIXPhjZD75ldZq8KSIiIl3EkeHM87x2FbOwkpYdvLJziO/72LZ91GNnB0DLskin01iWheu6OI7T7nLHI8d0iuQUPuDhg3q0B8IYE32JiIiIHM2ROcF13Xb5IQxkYbALw1n25T+qUpd9G9kVQCA67vEqTHWKUJdd6jwyUX/Y5URERESOJgxbQBTajhxatW0bY0wU4j7JPDjLstqFw1gshmVZOI7Trop3vApQnSLUhb98+AAfOnSI+vp60un0B8alFepERETkw4TDp57nsW/fPlKpVFQwCv9NpVKkUin27t1LMpnEtm1c1+XAgQO4rvuRx06n09GxXNdl7969tLS0HHWe3rHWKUJddvK1LIsVK1bw4IMP0traetRJi9lVvSPHwY+8fPigH3n58PsjJzseeSwRERHpOsKh1nQ6zUMPPcTy5ctxHAdjTDQs6nkee/bs4dZbb2Xjxo0AtLa28uCDD7J27VqAaEg2e2g2FOaDhoYG7rnnHt59911s2z5qXjmWAa9ThDpoX+5cvXo1c+fOJZVKHfWynue1K6WG34cPfCqVwvf96F8gqvplXyYMdFptKyIikltaW1v505/+xLJly7AsC8/zogUQiUSC/fv386tf/Yr169dHecJ13agQFOaII7tyOI4TVevq6+t54IEHWL16dTR3Lxx1PLJA9Enm6v21OsXq1yMnMB45mfHIy4YBzrZtGhsb2bZtG57n0b17d2pqakilUliWxXvvvUdxcTFVVVVRgKurq6OpqYm+ffti2za2bbN3717q6+sZOHCgFmOIiIjkoHBRxNFWvxpjyMvLY9asWfTo0SO6bEtLCw0NDezYsYNu3bpRVVVFKpWisbGRfv36RSHRGMO+ffvYt28fACUlJfTs2bNdngiHfj/LjNEpQt2nkb2QYtmyZTz//PNs3boVy7KIx+NMmTKFGTNm4HkeixYtIplMcuWVV1JQUEBLSwvz5s1j1apV/OAHPyAvLw+AxYsXs27dOr7xjW+0GwoWERGRriW7QmbbNrFYLBp6DStuYfsRz/OIxWIAtLS0cO+993LWWWcxceJEIMgZ8+fPp76+nry8PGpqaigqKqK5uZm/+7u/iyqAGzdu5K677mL37t00NjZSU1PDpZdeyrBhw6JFG+Hw7Gepy4W6MHDt2LGDX//61+zbt48xY8ZQWlrK6tWr+e1vf0ssFmP69OkkEgkee+wxLr74YhKJBAcPHuTBBx9k48aNXH311YwbN45UKsWCBQui/6giIiLStWWP+O3evZsNGzZEixvCULdt27Z2l08mk7z88suMHDkSy7LYsWMHv/nNb2hpaWHSpEk0NzezcuVK1qxZw+DBg6MpYqlUipdeeonhw4fTr18/9u/fz8svv4zneXz3u98lFotFfewU6o4Qlk1ffPFFNmzYwHe+8x0mT55MXl4edXV1fOc73+H2229n9OjRnHrqqdx7770cPHiQ4uJiNm7cyJ49e6iqqmLRokWMHj2aAwcOsHbtWq655pp2Zdns2xMREZGuIXs+m+u6PP7447z33ntRtS4c8du7d2+0CjYcbvV9P5oz9/TTT7NlyxZuvvlmTjvtNFKpFMuXL+e6665rNzXM930qKir47ne/S2lpKcYYfv7zn/Pcc8/R2tpKPB6P7tNnnSk6zUKJ7BWq8MG5daHw+yVLllBbW8u0adOIxWJ4nkd1dTVnn302S5cuZdeuXVRWVlJSUsK7774LwKpVqxg6dChTp05l6dKltLa2snHjRnbt2kVtbW0nGXr1gbZVucEnAa3EFRGRziN4TwrnpYXvWeB52e9Vbd0mjocweIWBKlwEkb0YIgx42SHNGENzczMLFy6ktraWkSNHAkHbtTFjxjB+/HiSySSxWIxUKkUikeC0006jsrIyOsbYsWPbNSY+FkOv0IkqdUcbbz5y8UR2O5I9e/ZQW1sblTPDP5q+ffuSSqVoaGggLy+PIUOGsHDhQk4//XTeeustpk6dSllZGT/60Y/YuXMnL730Er169aK6uvoDt3s8BL+ihzHg+x6um8a2LYzpNPlbpAuzgOP9wU2k6/N9ovcp37cy79OZsOeDwRDEPZO58LG9f+H7uDGGK6+8kuuuu+4D573zzjs8++yzWJYVrViFIGO0traybds2Jk+eTCKRiHKIMYbq6mqampqixZyO41BeXg4QzdVLJBJRPjmWO2J1mqQQlj3DBoDhhMYj+9CFY+KJRIJDhw61O911XVpaWrAsK5ojN378eJYtW8aWLVvYvHkzkyZNYujQoezYsYMVK1awYMECzjzzTAoKCo7nr9+O64YBFxKJuNqtiIhIJ2UyxYhMr1kbMEGhxcuEO2NMWLTrMhKJBIlE4qhNhZPJZDSMa1nWh7ZfOx46RajLbl2SvWoluyFxeF7487Bhw1i/fj07duyIQmBjYyOLFi2ioqKCnj17YlkWQ4cO5cCBA8yfP59u3bpRW1tLv3796N27N8888wx1dXVMmDDhQzfvPR6CLU08wNDammL7jm0cPnz4eN8tkRzg0+XeXUQ6oXD4tampmU2bNnD4cBO+H4wyGQye72MZg4XB948oTHSBp2BeXh4nn3wy69atY8+ePVGg27lzJ6tXr4761B2rYdVPqlMMv2YHuDD5NjQ0MH/+/KjtSFiJ69GjB+PGjeMLX/gCL774IrfddhtTpkwhLy+P9957jwULFnD55ZdHvel69uzJ6NGjufvuuzn33HPJz88nkUgwbdo0Hn30USZMmMCgQYOO2+a7H2CCpJ1MpdmwYT3Llr3Fpk2bufbav6WwsPB43zuRLq7zvPiKdGWum8YYm2Sylf/5n98zYMBAJk48haEDB0HcwbEtSIHvu8RsB1wIBmN9LPzjMiT7aTiOw+zZs1m4cCF33303p5xyCp7nsXLlStatW8epp54KdL6tSztFqMvej83zPPLy8mhtbeVHP/pRu3Fx3/cZMWIEt9xyC7W1tVx11VXcf//9rFmzJtrLberUqVx//fUUFBRgWRZ5eXnMnDmTBQsWMHz4cIwxJBIJzjzzTObNm8fpp59OcXHxZ/wfpn11IPyEY6K5BplVMUAymWT3rp0sXfoW8x57jKefeZovfOEsirt3/wzvn0jui6ZyRM/HTvyOItLp+TiORffi7qRSKb797W8za+ZMLrlgDsNPHkN5dU9iJoHBBM85Q/B+5wfXPRYfsIwxlJaWkp+ff9TzHcehsrKSRCIRXb6srCz6efTo0Xz5y19m/vz5vPHGG+Tn51NeXk5NTQ0FBQXEYjEsy6KsrCwqQIVisRglJSXHfI5+pwl1IcdxGD16NNdcc81Rx6mrqqooLi4mkUhw2WWXMWzYMN566y0OHz7MoEGDmDp1KolEAtu2o+rb6aefzg033MDUqVOJxWL4vs+ECRO48cYbmTlzZrR69rPkui6O8fH88M3Ex/eCiaX4kEq2smnTZlauXMnrr7/OE088wYb166moqODyyy8jLz8v82YkIp+W73nB0y7r9dXzPIylYCfyl4jHg95rsZjD17/+NR6fP58HHriPpYteZdac85gwaSInjxhLzeBq4iaGm3bBDp53nnts5oknEgkuvvhihg4detTzy8vL+fu//3sGDhwYXf5LX/oSgwcPBuD9999n4sSJDBkyhDfffJPq6mpmzpzJDTfcQFFREb7vk0gkuPLKK6mtrW137N69ezNnzpwoIEJbceqzZPzOVjvs4nzS4NsY30AaGuOtOJ6FnfKJO/DzB1fRnPK54bJRWJkwt3v3HhYufIkFL77EoldeYfv27bieh5t2uf7667nllh/jWw6mswwRi3QxrpvGtizOmD6DadNO53vf+160IElEPj2DT3NLCwUF+aRSaf7j5pv58X/+GNOaxuQ59D6hH1MnTmH6uVM5ZewEaop6Y5Um+P0za1mxcR+//NpJGCu/076vua7LQw89xGuvvcY3vvENevTogTGGjRs3csMNN/C1r32NOXPmREWpcNXr8dY57kWu88EyFp6bwrJt0s2tNDc3s+W991izZjVvvLGE3//+9zQ2NpJKpaI/kpqaGi655GKamprxMPjHvYeeSFcVTG9IpVK0trbSeLAxU7XTc0rkL+F5Lr4fTBlKJlPMnDWL3/+f37Nry1aSyVY2bdnExjUbeW7hE8w+ZzazJs6i/6hBpNNpEok4vpvGWJ23pmSMoWfPnrz//vs8/PDD9OjRA9d1Wbt2Lf3792fatGntunZ0Fgp1x4CPj+cH/zq2zaFDjcx9+GGefuIJli9fzrZt26IlPELpzwAAIABJREFU0saYqJt1cXExzz//PIsWvQqWrcFXkb9QsMLesGfXLpa99RZ33Hknnut2gmbjIl1TOp2mW7cCWlpawRhSyVaceJygSZ3BT6WwjMO297dx1x138vozrzHk5OF4lSfTrboW6xj1bftrTJ48Gc/zeO2111i1ahWWZVFTU8Pll19OcXFxu50rOsvvolB3DPiej2XZ4Addqw8ebOT511+Idr5IpVJRW5dwbp8xhrq6OubNmx/84RgTdHoUkU8tnKO9f/8+kslW6hsayDTREpG/UNB/LjNX3PfZs2c3Pv+XvTuPj6uu9z/+Ot9zzizZkzZJlyRd0oWmGy2hpaVL2NpaKEgBRVABgQKiAoqgV1CvyFUuKsuFCv70Ciq9glIWhUKhe0sXKHRv6b6ke9MsbZaZOcvvjzPnZBKqAlZJh8/z8cijySxnJjPNzHu+y+fjoGm6t47VdUGBlbDYW13NkXg9oVKNkRN6ecGPjvsn6HeZqKqqoqqqCmhbcs0wDOwO+MHwpIS6D5tU/XIlfmNb27bRdT3Y+eofxz8NWosS+0v/Um8jtW7didqKnehn/1jtS5ikdq34e79L6m36EolE63z6Ca6m6wosr8VISyxGSUkJ0y65mzdem8U776xk+fLlVO/Zg2VbuLgkLG/9T25eHrfdfhu5uXkS6oT4J2iahus43HPvvQwaNIgrr7zyk75LQpzyVHKnXyJhU1dfx30/+hH76+pwbRt0BY6GphQlPcuoGjaO08edyQHVkyYtL1ml+MRSNy6m9mptv9EgtTlBapZIPU7767Wvifv3MoX/b+p9Mk2zTZjz6spamKZ5wmOlfn+i38E//2SVVTupoQ5o86Cm3vnUhOv3Q/OLBqdeJ7W0ie9vPVH+baQ+wCd6IFOv1/689o1/U59EX/sWZe1DpmVZbVqMfICWDHaag9I0DENn4MCBlJf3Zu/evbw2axavvvIKG99/nyMHD5KwLBzgcM0RopkZXDBxIqYZ+kdPgxDib/BbGj344M8p792HCydfGJwmhPjoUt8HAV59dRYNDcdx0HGVhhkJ07WgGwMq+zBh/AQuPfcSCvt0Zcb8nazbVQt/p/Vl6nu836O1fXD7W+/7/vX901Pf01O7UrXPJ77UY6ce318elZoBUo+VevzUrHOiTNE+p6QOaP2zTkqo8/u2+kGtpqaG9evXU1lZSVZWVjA6FwqFsCyL+vp6tm7dyuDBg4PeaP6Dltp6ww9ajuMQCoXaBKvUXz41jUNrGvYffD8B+0+0XwE69QlIvd32/1FOtEE4NSD6W5b93ncf5NVSaBv6vHp5vXr14qtf/Srjq6qYNWsW765cyapVq9m9ew/Hjh/n8cd/SeWZIynpXkLHHagWomNr/dPTaP17/OTujxCnOqU04nEr+V5q8ewfn6WhvgFDNyjr3YPBw09nXOXZnH9xFf169CNim7Tore+bWvsaQylS38/99p/r1q2jV69edOrUKVh3Hg6HcRyH5uZmli1bxpAhQygsLGwzAueHND8zOI4TjKy1nwlMvXxqFkjNFKmX84+Xemw/U5xoZtDPJKn88/3BoX/WSRnvS72juq7z7rvv8p3vfIc9e/a0Od3/RdesWcOjjz5KY2NjEKT80Tu/Np1/Wb/Rrn++n2ZTA1fqWjT//qQGutQwlzq161829Ulv/+S2//2AIHz6X/5lPiq/pILtuFRUDORrX/saP/zPH/GtO+9kykUX0aVLN1aufJfnnnsO+99U10cIIYT4R7z3L4Wuw+LFbzFnzhyKi4uZPHkyt91+O9//0Y+4+eYb6NGjB0p57cIch+R78N/f9pf6fqrrOrW1tTz88MOsWrUqON/v766UYs+ePXz3u99lw4YNwXu53zveH3XzR/xSW3v5WaH9tGn7qVD/cv71/YCn63qbgSn/sidqcdr+uKnHcxznpJVEOWnTr9B65+rq6nj33XdpamoKLuOHKdd1OXz4MO+//34wCuc3xM3IyKClpSV4kFKTcmqw8p8c/3L+8VOT9ImezBOtz0s9zX+S2g+ppo7s+SFR13USiUSbJ81xHPSPEJN1pScLEHujBhnRKOXl5fTpU86UKRfz29/+L8uXr2Dp0mVc8+U6OnXq9LGeHyGEEOJkchwvPB071sgLM1+gsvIMRo0ezdVXfJ5u5T2xdAhZGs2JZgiDqyVDjgaO3wv2b4yWn2iWbMOGDdTW1iZv2wtB/vt0Q0MDq1atoqGhIXgvtm2bSCRCPB4PsoIfyFIHivzb8df6+040Oudfpv3onn+M9iEudWlW+wGj1L0AH2ZPwod1UkKdn5hT54X9tl3+cGLqL+Q/cP4TUl1dzbJlyxg1ahRr167FMAzOPPNM8vPzaWhoYO3atezdu5eysjL69OnD22+/Td++fenZs2cwbLl161Z27txJU1MT/fr1o2/fvsGUbVNTE++88w5DhgyhoaGBNWvWoOs6FRUV9O7dO3iAAWKxGFu3bmXz5s2Ew2HKysro378/SikWLVpETk4Ow4YNa/MkrFq1imPHjjFy5Eh0w/zQj5umvLU+uu7tFLJdF0NX2I5DcXER3/zmHWzYsIlNmzYSi7WcjKdKCCGE+KdpmgJcWlpiDBkymGuu/TKDBw8m0wwTS3bABNosnYLWwRavW9iJw4xhGG2WUPkdomKx2Admx1zX24mauoSqsbGRBQsWUFlZyc6dO9m3bx/Dhg2jZ8+exGIxtmzZwrp16+jcuTNDhw6lurqaWCzGmWeeGYTCQ4cOsXnzZg4dOkRpaSkDBw4M+q/HYjFWrFhBYWEhBQUFrFmzhoaGBsrLyxkwYADhcDi4X47jsHPnTlavXo1t23Tp0oXTTz+daDTK6tWrqa2tZcyYMR1rpM7nJ2B/2BMIRuH8Bx28+jZAEPjWr1/PV7/6Ve655x4WLVpEQUEB5eXl2LbNiy++yLx589i/fz8DBw5k4MCB/OY3v+HWW2+ltLQUTdNYvHgxr7zyCjt27AhC3fjx4/nMZz5DJBLh8OHDPPDAA1x22WXU19ezcOFCAPr168d1113HoEGDcF2XxsZGZs+ezYIFC9iyZQuRSISSkhKmTp3KyJEjeeGFF2hoaODJJ58kFAqh6zqxWIzp06eTn5/PyJEjP9Lj5dig9OTaQcdF11UyYHqrDUKhCEOHDmXQwIFeSRQhhBCiQ/DeqwoKOnHDjdcnp1YVru3vik1mAkPHtUiWr9PQ0FDB6NSJj5w6m+bPlKVuXvDDnl9FA7xc4Qejuro6fvjDH3L99dezbt06du/eTSQSoUuXLsyePZs333yTtWvXUlJSwujRo1m1ahWhUIiRI0eSSCTYsGEDs2bNYu3atRw5coTu3bszatQoJk2aRGlpKU1NTTz66KOUl5dTXl7OwoULOXz4MF27duVzn/scEydODGYJly1bxuuvv86aNWuIx+MUFRUxceJELrroIlauXMnMmTMZPHgwRUVFbfYRpGamj+Kk9udon7j9JyN1mjRV6gLBlpYWtm/fzhe/+EUuu+wy8vLyePXVV5k5cyaVlZXccccdVFZW8vbbb7Nnz55gWPP999/n8ccfR9d1rrzySm699Va6du3K008/zdKlS4PbPXDgALNnzyYjI4MbbriBa665hk2bNjFjxgzi8TgAb731Fr/+9a/p3LkzN9xwA1dffTWu6/K73/2OhoYGRo0axeLFi9m1a1fwO+zYsYO33nqL8ePHEwp9tB2qSinvPzoahm6goXBdLfg3OM8wT9p2ZyGEEOKfpeve+5RpGihlJEfXvHXmbjLw+TSttVYkeHXtlFLJzRIf5L/f+f/6S5380HaiKU1ou8Y+kUgwd+5cRowYwfXXX095eTnvvvsujz76KNFolDvvvJMpU6awbds2VqxYEeSAQ4cO8fDDD7Nx40YuuOACbr/9ds4880zmzJnD888/H4TIhoYGli5dSk1NDZdeeim33HILpmnyq1/9Kpgm3rFjBw888ABHjx7lS1/6EtOmTaOiooKnn36a9evXU1VVRXNzMytXrgxGCBsaGjh06NAJp3g/jJMyUte+HEnqWrTUnbFAm3VyqevZQqEQVVVVXHrppViWRWNjI88++yzjxo3j5ptvDqZ4CwsLmT17dpDan3/+eY4dO8aXv/xlunbtiuu6DBkyhO3bt/Pb3/6WkSNHBjtlhgwZwo033kgoFMK2bfbu3cucOXOIxWLBsYqLi7ntttuIRqOYpsmQIUN4/fXX0TSNM844A13XWbx4cTBtu3jxYqLRKKeffvrJeCiFEEKIT73Ucmd+uEtdztX+NGhbfkwpRXl5OVdddVWwHGz69OlkZWXxta99jR49ehCPxznrrLNYsWJFENZWrlzJnDlzeOyxxxgzZgyu6zJ8+HAikQjPPvss1157bXBbmZmZXHfddRQVFaFpGmVlZdx+++3U1taSn5/PwoUL2bFjBz/5yU+CZVxNTU3k5eVhmiZdu3bltNNOY+bMmVRVVREOh9m1axdNTU107979Y621O2nTr+0XAfr120604LF9zRj/Afd/CaUUR48eZevWrdx+++0YhhHMqQ8aNIjc3Fxs26apqYlFixbR0tLCrFmzghFBP+0uWbKE2tpaQqEQGRkZDB8+PEj4Sim6dOmCZVnBsTZu3Mill15KNBoN1gH069ePnj17EgqFyM3NZfLkycyfP5/LL788aB8yefJkunTpcrIeSiGEEOJT7UQbC/zuS+3rwqXyf04kEpx22mnBe35DQwPvvvsuEydODKY6DcOgR48eDBgwgHg8TiKRYO3atcTjcdasWcP27dsBb8CqpqaGLVu2sGvXLnr16oVSioEDB5KXlxcMXHXv3p1wOIxlWTiOw8aNG+nXrx+lpaVEIhFs2yYnJ4cbb7wxuO/nnXce3/ve99i9ezf9+vVj2bJldO7c+QOPwYd1Uuf0/OScmZmJUorm5uYPVHl2XZe6uro2Oz/88/3pSz9k1dfXY5pmELAcxyESiRAKhTBNk5aWFhoaGojH4+zdu5c9e/ZQXV3N/v37KSgoYNKkSUQiEZqamjBNk0gk0mYXbjQaDRZkNjY20tzcTE5OTptPA6m7WEKhEJ/97GfZvXs3e/fuZd++fRw4cICLLrroY89/CyGEEKKt1MDmv3/X19efcNq1sbER+GAVjEgkEtTJjcfj1NTUYJompmm2KSmSk5MTrM87duwY4XCYffv2sXv3bqqrq9m3bx/Hjh3jvPPOIzMzM1j3lpWV1aY6RjgcJhwOB+vpGhoayMnJCTZO+Px9B5qmMXz4cJRSvPPOOxw/fpy33normJn8ODtiT9pIXeoDXVhYiK7rVFdXt9m9AtDS0sL69evJyclpE4L87/1fIjMzk4KCAurr64PLuK7LsWPHiMViOI5DNBqluLiY0tJSfvKTnxCJRADvATt06BCxWIz8/HyOHTvWppigUoqWlpagno0fHKPRKDU1NW3+Uxw/fpx58+ZRWVlJly5dGDFiBHl5eaxcuRKlFF27dmXgwIHB/ZOCpkIIIcQ/J7XURyQSIS8vj23bttHc3BwEM/BG0Xbs2EE0GiU7O7vN9VO7OYRCIbp168bhw4eD935/lrCmpgalFKZp0qlTJzp16sR3vvMdSktLg2ng+vp6jh49SmlpKY2NjW2mef37alkWSilCoRBKKbKysti8eTPxeBzTNIPZxGXLlpGTk8PQoUMpKSnhggsuYOHChZSVlbFnzx569OgR/G4fdbDoXzK01L17dwYNGsTrr7/O+vXrgyHTpqYmlixZwoIFCxg+fDiZmZnB9Ktf/8UvKlhYWMjo0aOZN28eR44cAbxtxPPmzePw4cPouk4kEmHSpEmsXr2aNWvWBDtH6uvrmTFjBrNmzQp22vobMnyhUAjDMGhqasJ1XXJzcxk3bhxLly4Nwqht2yxZsoTp06dTU1OD4zhkZGRw5plnMnfuXObPn8+IESPadJQQQgghxMfXftlWKBRi6NChLFy4kIULFwahyrIs1q9fz+zZs6msrKSsrAxoXY8XiURwXRfTNMnKymLSpEmsWLGCDRs2BIHu7bffZuXKlUFzguHDh3PkyBHmz59PPB7HcRxaWlqYP38+M2bMoLm5GaDN4A8QZBJ/0Mk0Tc4++2x27tzJihUrgrp427dv5+GHHw4yi2EYXHHFFWzdupWZM2dSUlJC9+7dg9v4qE5qSROfv9ngV7/6Fb/+9a8ZNGgQoVCI5uZmFi1aRH5+PpdddlnwgKcOg/o/m6bJZZddxuOPP87TTz9NeXl5MGoWi8WCkb7PfvazzJ07lz/84Q9UV1cD3k7XefPmcdVVVwVpvH2hYZ//ScA0TaZOncq6dev4/e9/T0VFBY7jMHv2bAYPHkx5eXkQPs855xxeeuklIpEIN998c7vigRLshBBCiH+G/77tb6S85JJLWLx4MU899RSbN28mLy+PRCLBe++9x/79+7n11lvp1q1bm2VT7Vt+XnjhhSxYsIDf//73jB07lng8zooVK6ivrycrKwvXdamsrOSiiy7ir3/9K4ZhkJGRQV1dHXPnzqVHjx6Ew+FgadmJWoqmNk44++yzqays5E9/+lPQQWvVqlWYpkllZWUQDEeMGEFubi6zZ8/mrrvuIjc3t81mkI/ipIc6v0/r5ZdfjmmarFy5klmzZhGPx8nJyaF3797ceuutDB8+PHgQunbtyvnnn09GRkZwHKUU48aNo6amhgULFrBx40ZycnIYPXo0y5cvJzs7G9d1KSoq4s477+Qvf/kLb775JrZtY5oml19+OVOnTsUwDEKhEGeddRYFBQXB+j3HcSgsLGTEiBFB2Bs8eDA33XQTc+bM4ZVXXiEjI4OysjKmTp1KZmZmMOJYVlZGJBKhtLSUnj17BnPxJ6NvmxBCCPFpljpQ4i+dqqys5J577mHZsmUsWbIkmIYtKSnha1/7GpMnTw7Wt2VkZDBu3Dg6derUJmj169ePO++8k5deeolXXnmFcDjM8OHDGTZsGNnZ2di2TXZ2NnfddRcvvvgiS5cuJR6Po2kaQ4cOZerUqYTDYWKxGGeccQZ9+vRpEyJ1XWfEiBFEo1Fs26a4uJhvfvObzJw5k1mzZuG6Ljk5OXz9618Prutnpv79+7N3715GjRoVVOhIrRbyYZ30NmG+cDjMZZddxvnnn09tbS2WZRGJRMjOzqagoCAIQY7jUFFRwQMPPEDXrl2DgOU4Dm+//TZDhgxh/PjxNDU1kZmZyd69ewmHw+Tk5ARJ3n9w6+rqiMfjZGdnU1RUFNS06dSpE9/4xjcoKipqs0Fj0KBBlJSUBNOnSikuuOACzjjjDI4fP47ruhQUFJCTkxNcRylFPB4nHA4zZcoUcnJyggdfCCGEEP88fz2ZnysMw+CCCy5g1KhRHD16lFgshmEYZGdnk5eXB7SGwfz8fO6+++5gFyl4OWXVqlUopbjjjjtobm7GMAxyc3N5+eWXyc3NxTRNbNumV69efOUrX6Guro6mpiYikQiFhYVkZmYGofGGG24gMzOzTQuyaDTKzTffTGFhYXBfBg8eTFlZGXV1dSQSiSCf+Bs4DMMgHo+jlAqKG3+ctXS+kzpSl1po2A9ceXl5dO7cORgh83d9+KNbSikyMzPp379/m2Tuui4vv/wyAFdeeSXhcJiamhreeOMNBg4cGLQI8+vVFRQUtAmLfgDzw2Tv3r3bTLvquk52dnawsDJ1qLOoqIjCwsJgC7X/RB85coRt27bx3nvvkZ2dzdlnn92morUQQggh/nmp9Wx9uq6TlZUVTE9Ca194/71Y0zQMw6BXr15tKmwArFixgtmzZ3PjjTdSVlZGbW0tixYtIpFIBLVm/TCWmZlJbm5u0OjAvx9+EPOP3/7+lpaWBj/72SAvLy8Inn7nC8dxaGpqYtu2bezfv5/t27dz0003BTtlP9FQ135eOZU/JZmatv1f9G9VhdY0jXA4zIUXXsiMGTN48sknicfjQWuur3zlK0Gh4dTChECbrcqpt5sq9fKpx0hd3+fzy6lomsbu3bt58MEHAS9oduvWLfidZJOEEEIIcXKkFh/2naguXfsqGm3XuLe9zHnnncfatWv585//HIQr27a5+OKLqaysbDPr6GcX0zTbrJnzmxmc6D60X8vn/w6pUjtPJRIJnnnmGTZs2MDo0aODYOlPI/v35aM4qaHub/3b/vv2jWvbX95/MMePH09RURFvvPEG27Zto2/fvpx//vkMHDgwGAk80S+curatfbXpE91u6s/t07Ef9HRdJz8/P+g/e9FFFwVbqlOPJdFOCCGE+PhONEqXenr779ufdqIMopSif//+fPe732XhwoW89dZbFBcXM2bMGM4999y/mynaH8/PMB8nUwDBwFY0GqVv37506dKFz3/+8+Tn5//d3+/D+Jfsfj1ZdF1n0KBBDB48OKj/0n4zwomGP082f/i2vLyc++67728+8UIIIYTouEpLS7n66qv5whe+AHxwkOnfkSn80byMjAymTZt2whG9j6tDr+5PHUqFthsyUoPVv3rqs/20bPuyKEIIIYTo2PyRsxNN6f47M0X7Gnftp5n/GR061LWfx/6k1q61H0KVjRFCCCHEqSU1UyilPtH18KmZwi9MfFKOe1KO8i/yYRP0v2Mq1E/SH6dujBBCCCE+WR92avXf8R6fuqniZN5eh19TByde9Oj7dzz4SqmgfIrfK1YIIYQQp47UTJHasSLVvyNT+LtrLcsKSrCcLB061Pna16n5d/p7u3aFEEIIcWpJzRSfxPu6f/v/itvu0NOvQgghhBDiw5FQJ4QQQgiRBiTUCSGEEEKkAQl1QgghhBBpQEKdEEIIIUQakFAnhBBCCJEGJNQJIYQQQqQBCXVCCCGEEGlAQp0QQgghRBqQUCeEEEIIkQYk1AkhhBBCpAEJdUIIIYQQaUBCnRBCCCFEGpBQJ4QQQgiRBiTUCSGEEEKkAQl1QgghhBBpQEKdEEIIIUQakFAnhBBCCJEGJNQJIYQQQqQBCXVCCCGEEGlAQp0QQgghRBqQUCeEEEIIkQYk1AkhhBBCpAEJdUIIIYQQaUBCnRBCCCFEGpBQJ4QQQgiRBiTUCSGEEEKkAQl1QgghhBBpQEKdEEIIIUQakFAnhBBCCJEGJNQJIYQQQqQBCXVCCCGEEGlAQp0QQgghRBqQUCeEEEIIkQYk1AkhhBBCpAEJdUIIIYQQaUBCnRBCCCFEGpBQJ4QQQgiRBiTUCSGEEEKkAQl1QgghhBBpQEKdEEIIIUQakFAnhBBCCJEGJNQJIYQQQqQBCXVCCCGEEGlAQp0QQgghRBqQUCeEEEIIkQYk1AkhhBBCpAEJdUIIIYQQaUBCnRBCCCFEGpBQJ4QQQgiRBiTUCSGEEEKkAQl1QgghhBBpQEKdEEIIIUQakFAnhBBCCJEGJNQJIYQQQqQBCXVCCCGEEGlAQp0QQgghRBqQUCeEEEIIkQYk1AkhhBBCpAEJdUIIIYQQaUBCnRBCCCFEGpBQJ4QQQgiRBiTUCSGEEEKkAQl1QgghhBBpQEKdEEIIIUQakFAnhBBCCJEGJNQJIYQQQqQBCXVCCCGEEGlAQp0QQgghRBqQUCeEEEIIkQaMT/oOiBNxcd0PnqppWnCe9z0n+Pkj3lLyhryra8FpmqYlz9PQNP+01st8lGO3+y34mHdVCCGEEH+HjNR1MK7rJsOQm/Kzgxfe3JSg5LYLTe1//ki3mrwtp83ttp73cY8rhBBCiH8XCXUdkDfyBn6gchwHcHAc70up1rDXPgB+nADmj5w5joOmtYZK/3TXdVEf439K6ghf60if89EPJIQQQoh/SEJdB6RpGkopHMfBtl0syyIet7FtB8NQyTAHuq7hOC623RqUHOejj9i5Lti2i67rWJabDHEaSnnf2/bHGwV0HC+Qesf3AmgiYX3k4wghhBDiH5M1dR2Ot27OcUDTFJrmYFkJNm7cRCyWQNNcbNtGV7p3aQ0cF3r06EFpaXc0TcO2HTRN/9C36E/ruq4GOBw5UsPBg4cpL+9JJBINwqOmuR/puOBSXb2bWCxG797lOI5LOGyecL2gEEIIIf45Euo6GH/aVSkNy7JRSrFt205uueVWjtbUYOg6mq6DY+OioQFmyOT2O77Jddddg2nqqI84V+q6DqapJ6d9dZYuXc5vfvMbfvGLX9C7d0/AGxWMx21M88OHOqU0nnrq9+zatYvp0x8jIyOSXLf3UYKhEEIIIT4MCXUdkDcVCrquo2kamqZRX1vLqNGj6denHAcNXdewLQtcDcd1OO2001BKYVleIGxdZ5dcz6Y0NLRgZ2vrrlnaTLsahiIUCnG88TiFhYUopYjHE4TCJoapB8d1HIJ1dv7uW280r3WNnpVw0ADHtsnKihKL2biui2kqXBdUcoetf5+c5LRv6kjex93VK4QQQnzaSKjrgLz1dK2BRtM0lK4zdeqlXH75VCzL8UKd7aCUjm3baJq3Bm/Xrj3U1BxiwIAKMjMzcF2XuroGtu/YTo+yHnTq3AlwaWioZ2/1PurqatF1g8KiIrp26YJhhnFcG9d1iMVjuG4WNTWHqd67j4EDK8jMyAA0Eok4mze/T1ZWFmVlZSilaGlp4cCB/Rw8eJBwOExZSRmObeE6No7t4NgWIdOkvraWPXuqaWpqRNcNioqL6dKlGDSVnN5NDZ9CCCGE+DAk1HVAqWHG/1bpOkrpOI6LYWjYNui6wnW9zQimqRGLJZg3by6/nD6dH//X/Zxzzjk4jsP8BfN55JFHuOeeezjvvPOor6/ntVmvMfuNN1i9ahV5+fmMGjWKy6ZOZUDFALKysrBtG6U0HNfm+Zkv8Ic//IHnnvsjoa4lmKaOZSX43vfuZdiwYfznf36fpqYW1q1bwx//+CcWL15Mt25d+fwVV3D48GF0XaelOUY0GubAgcO88cYbvPbaa+zYsZ28vHzGjRvH5AsvpGJgBZblEArpWBZomlcnTwghhBD/mIS6U4XrsnvXLtbdGIVmAAAgAElEQVSsWYNtOeiGAtfFBUKhCP369cE0TT7/+StYufJdpj/+OAMG9Ofw4RoefPBBpkyZwvhx40gk4rz22us89NBDXPmFL3Dddddx/PgxZjwzg5/97Gc8/PBDxGIxoO30r6EUmqah6wrbdohGoziOQ1ZWFpZlceDAAe6++z/o27cvP/7xfYTDIZYvW878efMYMXIkmqbR3Bznueee46UXX+Sqq69mwIBbqKtrYObMmTz00EP894P/TUFBPo7jouvax9pxK4QQQnxaSag7RTi2zY/vu4+fPfigV09OKXAdQKNv//68+uorhMNhcnKyuXHaDVx/3XU8+eT/Y9++fRQXF/PFL15FOGxwpOYov//d7xhfVcUtN0/DMMPE4y306tWLZ56ZQV19AxkZGcm1dHFMwyAe90Oega6rIHRZlpUc0dOZP38Be/fu5cknf0n//v2IxRKcNXIESxYvxnEcwuEwO3Zs55FHHmHatBuZMmUK0WgIy7Lp06cP11x7LatWreH886tIJGxM05BdskIIIcRHIKHuVKFpXHLppVRUDMD1FtyhK2/DQufCzriuExT5HTCgP9d+5Sv87Gc/Izc3lyeeeILu3UuJJyzq6+rZtWMH11x7LeFwBDSNaCTKaf378/3v34tSOjt27MAwDK/Ysetimiau5u3GdV1wHBvQMU0Tx3Fobo6xbt06hgwZQufORThO8jq2xrhx41i/fj2O41BdvY/Dhw6xe/du/vjHP+K6Npqmk0jEONZwjA0bNjB27FjCYQPb9jd8CCGEEOLDkFDXwbR2Xmjbg9V1HD772c8yadIkDENLdpbwNlT4hYhd1yGRcAiFQlRWVhKJROjcuTPdu3fH27WqSCQSWK5LTk4OjuvgOhqmoXBcl5aWFi/oAbZtYxgGtm0TDodxba+8ileMGEwTdK+1BZCsnafrhMMmlpUskYJGZmYmiUQCw9A4evQoaBqLFi5i9eo1OLaN0nUcxyEjM0ooZCaLK5NcK4gEOyGEEOJDklDXAXlryTRs2xsRA3A1jZaWFnRdC6Ynvd2v3mYKf0esaRrs3XeAX//613QtLsZxHH75y19y993fJj8vH6UbGIbBoUOHUJoibiVQyqCurp55c+cyZuy4ZBcIF6VUstyJHZwGYJqK5uYEzS0tQfeLnJwctmzZQktLnFAoBChcoLa2NlkQGfLz8zFNk58+8AATJpyfnMZVgMbBQwfJzMpKljgh2a5MAp0QQgjxYUmbsA7K2+Wqk0gkvN2wyZG0lpYWmpubg6/jx5toamqmrq4OTVPEYhavvvIKmzdv5r77f8zXv/51XnvtNebOnY9l23TqlE+/fv1YtHAh+/YfwHEcmpqaWLLkLR79n8eor6/HsizC4bC3YcKFoqIiYrEYhw8fIh6P0dTUzMaNG6nevRul6xiGwRlnnMHOnTt57733sO0EjY0t7N+3j/nz5yc3XLiUl5dTVlbGokWLOHr0KPF4nJaWFrZu3crPfvYLVq9eF/S29evmCSGEEOLDkZG6DkhLrl/TNIVSilBIR9d1Vq16j2jUJJFw0ZVCU143CFwoLSshO/sMtm7dztNPP83ll13GuHFjOH68iTfffJOnn3qKyspKunQp5sYbb+T+++7j//7v/xhYUcHxxkaeffZZxo4dS0lJd7Zt20YikfDWxQGnn346mdnZ/PGPz1I1vgrXdVmwYCGNTU3ouo5p6owZczZjxoxhxowZNDQ0EIlEWLpkMVu2bKGwsBDbhuLiIr797W/z5BNP0LlzZyoqBmDbNi+88CKHjxyhqKgQXTdIJBwMQw/W7gkhhBDiH5NQ14EpBUp5mwb69u3LogULWDhvPiiFhut1lsDFRWPMuHGUl/dj/vz59O3bjys+dwWuC5FIhO9977vcfdfdLF++nEsuuYSqqvE4jsNLL73EgvnzycrOprKykquvvopoNEpOTg7l5eXJETbo1q0bd931bWbOfIHp039Jjx5lTJ58IY7jUFhYSCJh0alTAXfffTd/+MPv+cMffo9jO5wxfBg33XQTjY3H0XUN0LnkkovRNHjttddZsGABuq5TXl7O9TfcSP/+fYjH/bV8DoYh/z2FEEKID0tzZY7rpHKxwNXRXA0sOBaKYbo6YcdAUxaPPLuB5oTLHVcN9TtufYCmeZsEvA0GXrBKJBwiES/gua6GYUA8bqHrinjcJhLxNigopbBtCxcwDL11bZwCyybYYNHS0kLINNCUjuNYOA6EQyaaBo1NLUQiEW/Dhptc26a53ughGqGQzpEjtRQU5CfXvznBBgrDUGgaNDcnyMwIEWuJg6YRDpkkEhamqdPSEsc0QxiGhmU5GIYiYbnoBriut/4OQNeRdXXipKqqOoeqqip++MMffNJ3RYi0ZDgQ08FSELUgZrSg24poPEST6fLM3C2s2l7D4zefAZitFfbFSSFDIR2QbTuAIhQycRzvNNNUWJbXQswPeYZhJEfj9ORGCT3Zv9UMjqUlw5ib3FGhK68bREY06oVGpaFpJqbhTfnqulfiBEjuuk2263LB0HVs28WyXAoKCmhNpV5PWMPw+tbG43Gi0Qi27WKGQriA7YCmFC1xGzMUAiAW93bUeueBZXlH83vKJiu3CCGEEOJDkFDXASmlp3zfenpqwPF2jZKsTZf6c/sUpGHobZ9mwzBx3dZ/kwNy6Lre7poaWnBftOR1211C8++blrxfGtFoJLjDbutF0TQdM+V30w3vPrvJC6h223Yk0AkhhBAfnux+FUIIIYRIAxLqhBBCCCHSgIQ6IYQQQog0IKHuFOe11Gp/mte6y//yujR4F3JcB8f1dl+4Kee3Xo/g8qlfqcdN3TDtHwv/iP5l/tbWXiGE+BQ40WunbXuVAtw2r83ea6jftcc/rX1hiuA1PKW7T9vXaLfNZdrfB/80n3cc/zKpp/vHCm75A+8R7d8HRMchGyXShL9hAlr7x9bV13Po4EHiCYuCgjy6d++O1RJHUwo9ZOLYDprSkjtcFa7roGkKx/H7z2oE2xiSPWg15f3Rm4bCtsG2LFTI323rep0wdA032ZP2gxs3hBAi/fmBya8KoOtw7Ngxdu/ZlSwe7/XwdhyHkGnQEkuQnZ1FYWEhGdEomqahp2xyc5xk+aeEhWmaydJXTkrvb69ygmnqya5AJo7jha+mpia2bdvGgAGnEY2GcF0tWWA+hOM4wUY7pSCRsIjFYuzYsYfy8l5EIiFaWhLU1ByiU6dCIpEIjmPjutoHNteJT56EujSQmpv8YBePJ3juuT/x7B//iFKKiy+5hK9+9WY0jWT7MStZ085BQ0sGMO+6SrXWswOSLzxeP1rHcYKOF44DpmlgWV69PMcBpTTi8QS60tE0+YMXQnw66boWtDv0+l+7HD58mKlTp9K5Uyfy8vKSvbUtbNtCN0w6FRRw8SWXcPllU5Mfp91kj2+VbJ/ohTb/NVrT/A/0fv1SlQx2BpblAF6d0tWr1/DAAz/loYceomfPHgBEo35tUw1wsG2Sr+k6GzZs47vf+S6PPf4/9OzZg127dvL9e7/PfT++j759y0kkLEKh8Cf34Iq/SUJdmkgdCbcsm4Zjx5j9+uucNWoU06bdSHZ2No5tY9sWsXgC27YJhUIYhonSFI7jYFlxHMfCdRW6rtA0nUjEIB63aWlpJhKJEgrpNDU349gWoVAIXQ8DGrFYHNu20DSFbdtEwmEMQ0KdEEIoRTA6lpeXxze/9S2qqsYn2yG6aJpLXV0Dv/j5L/iv++9nxIgz6datG4auYxg6TU0xXNfGsrxC86Zp4tUHdXAci+bmONnZGcTjXtAzTYWmuRw/3kRWVgZDhw7h0Ucfobi4GF03iMfjxOM28bhFLJbAMAyysqIopWhqitGvXx+mT3+cLl27EI9bbN++jddnzeK7//Fd6uuPk5ublRzhk9f4jkZC3Smu9ZNa63B/be1RFi9ZyKFDB8nLz+ftFcs5a9Rotm3bzv691ZSUlbFz53ays3OpqhpPLBZn16497NyxnZqjtWRmRikpKaWiogLL8mrRbd78PpZlUVRUyKb3N1NdXU3v3uUMHz6clpZm1q5dR13dUbKzcxk+/HSysjJbCxcLIcSnjOuSHAXzpl+V0pIF413y8vIoLirCxSWRSKBpGp06debSqVOZ+ec/s2nTJnr16kkiYdPS0simjVvYu6+apqYWCgry6NmzF/379yGRsNm1axebNm6k6pxziUYz0HWNWCzB/v37ee+9dznnnHNpbGxk+fK3mTRpAtFohObmJtasWcvBAwdwscnNzadPn76UlJSSmRll//6DvPPOSs6/4BzicYfFi99CU4oF8+djnK+Tm1shga6DklCXBtqvVz18+BCvvvoq+/bvw7ItHNuivE8fFiyYz//71a84e8wYYrEWevXqxejRo1i7Zj2PPvo/1NfWkpufT11dHa7rcvXVVzF16lTC4RDP//kFNr//PiU9unPkSA1NTY0cOniQz195JfFYnLVr19LU3Mze6mrOPe9c7r33XkJm5JN5QIQQ4hOWuqTFmyrVk2vgHBKJGLF4jHg8TjgUImElaG5qYvv2bUSzMsjNzcG2bRzH5dVXXuepp58iHI6QmZnJ0aNH6d2zJ1+/7Rv07duHQ4eO8N8P/pzuJWUMGzYE8JbY/OUvf+WVV15h7NhxbNy4iR98//sMH346oVCYF198mWeffZacnGwM3eDgwYMMHDSI++//EaGQwb59+/j+vfcycNBMLMtm1apVxFpamDNnDqWlZVRUVADyob0jklCXhgYOHMTjjz3OtJtuYsyYs7nmy9cQiUaZM2cuDceOcd5553HllVdiWQmshMWvfvUkR4/W8Itf/IIBA/rR0NDII488zLe+9S0GDhxA/9MGoCmNxYsX8eML7+eaL38JTSnu/vbd/OS/fsrNt9zC9OnTMUyTxx97nIce+gXXXXsdffr0+6QfCiGE+MT4wc4w9JRRO4u1a9cmWyk66EojFk9QW1vLiy++wGc+8xmGDBmCaRps2bKZJ554ggkTJ3D77bcTjoQ4eOAgt95yK48++gg///nPOP30IRQVF/L2228zaFAFkUiIurpjrFixnAsvvJD8/FzAwbIt4vEE0YwwL7wwk4kTJ/L1r38VTVOsXr2We+75Hps2bWHQoEEopWMn1wIOGjSQ22+/ncULF/Lgzx6kvLwPjuP15hYdj4S6NOJNxWrJYX8T19FQmkk4HMV1QGkGnQsKGT1qNK4DphFi29YdbNy0gZ/+5KcMqOiPUhqZWRl8+ZovMfOF55m/YD4DBw3EsuIMHjqYz3/uC0QiUVwXBg85nVmvzeaKyz9HVlY2rgv9+w/gWEMjNTW1lJfLJzkhxKeTX0FA00juQvVen5ubm3nlr39lxYoVKKU4eOAg27Zt44zKSr74xS8xYcIFZGVlYdsOS5YsImHHmPSZCezbX41t2+i64uxxo3n0kUf4+je+xsCKCqqqxrF4yQKu/MIVhMImW7a+z4GD+xk3/mzAa8moNAczpNPS0kIoZLJ//36WL19B9+7dKC0t4Z577iEvL5dIxPRKqjhOEET98iVKGcn+45q8tndQEuo+RTRNIyMzk8zMaLJ0iUN1dTXxWIJ+/U/DcVx0pVBKp3v3UgYPHsrateuT2/ENunbtRm6uF94cxyUzM5NOnTqRm5sb7Hw1TQM0Ddt2/vEdEkKIT5n8/E78x/fu5aILJ+G6sG37Tr7zne9wYP9+TjttANnZOeB6m8/Wrl3Hnj17+fF99xOLx5KvvQ4tLS0oTdHY2AwajBkzjqee+h07d+6momIA8+YtIDc3j969y9ENg3A4guNAPG6hlMGFF13Egz/9b154/nnOGj2ayZMnU1FRQffuXXBdDU1TaHhrAdtWV/CqIPg7biXYdTwS6j5FHMdB1zRAJacEDFzH+wRm2zau65KwLGzbIR6P47ou4XAYTQPL8kuguCQrnWDbNomEt5MWUgohyx+7EEKckL8xIpGwcVyX3r168M1vfpNv3nEHDzzwAD//+YN079aNUMhEA3JzcqioGIBpmrjJ2qFKKdR555KXl4tt25SWltKzZ0/mzJlDXl4ec+bMYcqUKWRmRLEsi+PHj6PrOiHTwDAMrrjicrp17c6qVavYumUzjz/+OLgu37jtNi699FJs20ZTJ+5NkFoTVXQ8Euo+RfygZdv+VIBLUXExoXCYHTt20LVrF5TS0JVi//4D7Nq1iwsvvJCQaQT9KZTSUqZ5vRpMptnuv1HQ0UKCnRBCtGcYBpZtYxgmmqYxfNgw7vz2ndx557f5y19e4fqvXEs4HKaiooJNmzZx2223kZObh2nquK7LkSNHOHq0jpKSElqa4+Tk5DBhwgRmzpxJz5492bJ5M2PHjkHpOlY8gVK6N4PiuDhOgr3V+xg9eiRjx56N41js2bOfH/zgBzzzzDNcfPHF3oicpgWjdP57h+s66DrJEcNP8AEUf5O0CUtzJ2oho5QXyBwHevbsQd++ffnd737HurXr2LVrN9t37OKFmS9QX1/PmWdWopTC0PU2x/GH3r3jtLYkaztAJx/nhBCfTn+r/aL/umkYBhrJcKTBxIkTqRo/nqeffprVa9YST1iMGj2aeCLBs8/+ierqag7sP8CWLVv5+c8f4u677+bI4cNkZkbRdcX48eNpamrif//3fznn3HPp3bvc6/5jesER11tec/jwUX70ox/x0kt/5ciRwxw9WgdAZmYmXbt2BVx0XcdNdqsAzVtbp2lUV++ltrYeaRPWcclIXVpysW0b0zRRymv7pZT3aSsU9qqAe/0GNbKzs7juuq/wwE8f4Mf33U+PnmUcPHiY/fv2ccvNt3DWyFFeOxhlEDJMLMtOdo/wjh8KhZIjd96LlVI6ZijkfTIUQohPKb/9lt8RwrYtdF3H0A1cx3s9ti2bUMjA0A2UpvPla67l5mnTeOYPM+jbpx/9+/Xjsssu50/PPsfyFSvIzsyivqGB48eOcfXVV1FYWIRluTi2TY+yMkacOYLnn3+e6b/8JVmZWSgNEpaNrhThUBhdV+Tn5zN48BB+99RTvPHGG+TmZFNX30BDQwPf+ta3kqOBTrLAsVcYuaCggNKyMqZPn84VV1zB5z9/OTIT0zFJqEtLLrFYMxUVFXTr1hXwXmBKSrpx5ogz0XUD01QkEjaGoagaP57evXrz5z//iWVvLaW0Rxm33XYbFRUVRCJeK5kePXvQqXMnQiEd11UopZGXl8eYMWdjGHqyDyAUFhZSdc45RKPSQkYI8WmmBeuMvQ+8ivz8PEaNGkV2djau4wY9V/2WXmdWDufL11zL9m1bqKurJycnhxuu/wqDBw3mxRdfZOuWLZw24DS+9KW7GTp0IPG4jVLerlTDMDjvvPNwXZeBFRXoOiQSXskU0wwzdnwVoMiIhrn99m8wYMAAZr36V3bu2MHpw4fzhS9cRf/+fbBtl6ysLEaedRaZmVHApaKignvvvZe//OVlDhzYj2U5GIbEh45Ic2UM9aRyscDV0VwNLDgWimG6OmHHQFMWjzy7geaEyx1XDf2XzU56295bd6Datotp6ui6RjzutfIC0HWV7NtqYNs2SnkjbZblhT3H0VDKoaUlTihkJHe4gq7rJBLebYAikfDazGiaA+jBJ1Jvl5R8mhMdR1XVOVRVVfHDH/7gk74r4lPASW5E03V/DZoTjNz5myUiESO5ztlfHqMAF8fRsKwEoZCZvI6W3I3qJmdHvNdx7zzv+H7vV6+/t4NhaMmZGu912usJ64XJeDyRLF9C8jgurmsnRxXtoGOEN2Xcenwn6BR04td3w4GYDpaCqAUxowXdVkTjIZpMl2fmbmHV9hoev/kMwAR5jzipZE1dGnIch0TCQdMUhqHQdT3Yseo4LoahoRTJ/q8GSmmEQnoypHmNob31H97fWzQaRik9+cevcF2vt6BluViWTThsoBQcP96c7DtoJv9O5fOCEOLTyQ9LXt9X78swFKGQjm27JBJuMNqlFMTjNrbtJEuPeOHNMEwsywt63gdqFXwppeE4Gqapo2neMR0HTFPHtr3b8mjJ130DTSP54d37cO7fR6+2KYRCBpZlEQ6bXrkUXDRNJctVacnyVl6gEx2TjJ+mIdM0cBxvON+2vT8+x/ECmq77LyhxIpEIlgV++PJrIJmm92lP193k+aCUG+x89TZHtBamtCzv+tnZmcEnU01zk/WO/p2/uRBCdBz+pgi/GkAiQXKThB6cb1kEa9j8ET3T1EgkvHDVejnvNdeybDRNT4ZFG9f1juXNpniv+X49udb2ZBa2rVDKTR7LxTBU8sO7FgRPb820gWU5ZGdnJMOoRiKRwHX9WRr//suLe0ckI3VpwB9VS92R5IUyrU3lb6+1i7fOIxqNJINf6/U0TUt+uvOO4Q3Taym3Q3KEz8E0DVxclE6wLiT1fqCpdi9obXeCCSFEuvOmRd3gtdfXtqAvgIthEGxqAzAML9C1lg7RUlqOqeQxDRxHC47pj8KBlhyt05PH0JLHJxh58053k2vvbEDzape63gyMd0zvcrpuopSeDIQWEug6LhmpO8V5hYEddF1H07x1EYbhfWpraYknd8CSXAfhTwP4n978T4Te+ji/lY1/XD+UecP8XsCzbAelaziu90nPsiwMQ8MwNGJxywt7joNf4Nh1vSld75haynoMIYRIX/7rbeuHXpJhSg/OB7+HqpFyPskP4/6UrX+51ulUb9ZFSzlO6/febXqX9GdoTNM7wTSDe5c8pp5cTmMEl2+/AcIPiSqZNiMRqWzQkclI3SnOC13+wlqSwa51qlUp/1NY6x84+CN5KihR4g/Ht+7Y8ofkW3sW+renJUumOI6LaXi7Y13XJRQyU+6XE3Sf8KZ7nSAgCiGEEOLkk5G6U5y/I9VvGm0YGseONdHYeAzLcuncuTPhsIEf+ryRPJ2GY8eJx5ppaopTXFzM8ePHcV2b3Nw8QiEdy/KO7XWMAMuCeLyFY8eOkZGZTThsUHu0joTlB0aHkKlwXEVGRgTQyIhmJtePqKBfrPeJ75N8xIQQQoj0JKHuFOePvHkjYl5oW7V6NX9+7lnyCwq46eabKC4uIh5PeJ0hDB3HcdmzZw9PP/0UnToVcMP109i4cQNz5szj+uuvo3v37riuV4fIthWJhLeGYtmyd5g7702m3XgjLhpPPvEEtbW1QYcKgEgkSu/evRh+xhkMHzYc19WTa/vc5FSCm5ySFUIIIcTJJKHuFJe6XR689XWbNm1ixowZZGVnc8EF59OpU2fAWyvhBTR48803efKJJznrrFF8+UvX0LlzITNnzmTAgAF87nOXJevX6cljuiQSTTz33HPs219NOBzh0OHDzJgxA9MwyM3J8dbYhULY8Tivz5pFcbdu/PcDDzJ06BB0HeJxJ1kryUVqVgohhBAnn0yEpQE/1Cmloes6sViMbiUldOvenSVvLU3WGDKDOkmJeIzZs2dTUlLC8cbjKKXTt29fKioqePPNN0kkHCKRUMquLIO9ew/wzooVTJgwgYKCAhzHoXNhIQ/+/Oe88+47LF2+jKVL32LJsmU8Nn06R44c4eWXX6alJZYsmOmXOZEu0EIIIcS/goS6U17bQpBeWRKDvLw8Jk6cyMqVK7EsK1myxCtdsnzF2xw4sJ9Ro0cHmxuUUkyaNImVK1eye/fulHpz3hq4pUuXEY5GmTBhQrDZwetCodo0qTYNnXHjxnDWWWfx9ttvB9Oymqba7LISQgghxMkloS4NaXjb3c89t4o9e3axe/cuwCUei+E4NosXL+Scc6ro1asHsVgM8Eb6qqrG4joOb7wxO1lc2DteIhFnwfz5jB49mvLevZIFik0cxyEajSYbRnttyWLxBI2NjbiOQzgcTha/9IsZ6yk1l4QQQghxMkmoS0temZPi4mI6d+7MX//6V8AlFApx6NBhlixZwpQpUwC/pZc38lZQ0Jmx48bx0ksvc/RobTBat3btBrZs3cq5556L44Jl28Et7du3jz27drFr9x527tzJ1q1b+O1Tv+Pd995j4sQJZGd7DaENQ5fCw0IIIcS/kMyFpSFvjZ1Lfn4+559/Pk8//TTXXXcdGRkZbN26la5duzJs2DCWLVuG6zrJKuYuOTmZTJkyhVu/+lU2bXqfMWMKsW2bl156idzcXIYNG5rsE2viui7HGhq44/bbvU8GuiIcCmPbNtFolPMvuICLL74EUFiW13ostaOFEEIIIU4uCXWnuNbWXK0/o3lr5DRN4+yzz+bhhx/mvffeY9zYsSxatIjhw4cTCoWwbTu5Zk4Rj9uEQgbDhp3O0NNPZ8GCBYwdezb79u1j1qxZTJt2I7m5ucFom+M4RCJRrvzCZPr1LUc3DOKxOHl5ufTrfxqDBlaQk5MbFC72/kUCnRBCCPEvIqHuFOcXCPZbx9i2haap5HkOvXr2ZMSIESxbtox+/fqxbds2pk2bRjgUAgg2UJim1y4mPz+fyZMn8/LLL1NX18D69RtIJBKMGTMWwzDRkkWMTSNEOBzhogsvYsKE81OCm5Y8ph/gpNiwEEII8e8gb7enPDfo+er35/NG7zRIhrQLLpjAu+++y+rVa6irq6Nv377EEwl03cBr/OzgulrQ/WH48OG0tLSwZcsW5s6Zw2c+8xn69i1H07wm0eA3dSYIcF6obO1b6P/s95Btv0tXCCGEECeXhLpTnhuMkgVfjotpmhhmiFjcYuLEiRw+XMP9P76fkSNHkZubl+wXq6FpCk1rLWJs2y49e/agf//+PPbYY2zfsYMJEyZgmkZQusQPaolEIgiRQgghhPhkSahLA1pyDZ03QucSjoQxkm0bNA2KijpzWr9+HDpwgAkXnI/jON4UqmmSkZGJ62rJHrLeaF1ubhZTpkxh3tw56LrOGWcMx+sd6wTTqqZp0rlzZ5RSxGKJT/YBEEIIIYSsqTvVaZrCcVxMU8OywDR1xo4ZQ1lZKZGIt25OKYObbrmZz115JX36lGEiCygAABTbSURBVHuToJrGZyZNYtiwYeTm5uKXQfGncU8/fQi/fOKXFBcXk5mZgWW56LoCvFG5oqIC7rrrLgYOHBAUMBZCCCHEJ0dC3SlOKQ3bbt0BqxT07t2T8j69IFnaRCmNAQMGEAqFcWwLx3EJmTr9+vel/2mnobTWY3jTsi65uflMmTKFeNzCMHQSCQfXhUTCwjQNMjJymDx5Ao2NLRiGFBUWHUXqbnA3WOfpn+YtFXBTOp20nud/719HCCFONRLqTnF+EHMc783I+1f3B9SCN6pwKAKArpvouneervTgOLqupRxTC+rJeWvpwDC8y4bD4eBytg2RSEQCnegwXNdNrvXUsawE4XAI0HAcG5Xy/911bVwXdF3huk7yw4rXJUXXDQl2QohTkqypE0KkDdt2iERC1NQcpa6ugePHm/9/e3cfJPVV53v8fc75/brneZgZngSGPEAmEBDIhkCI0ZgQZTfKblZTtVrXa6xE79WyvEksUypVmhKLitldrQ1JSZ4sshauYm2caLSQuAhJthbBhIqAETUGBCZhHgJhmIfu39O5f/R0MyBX9C4yncnnRU3N9G9+9Pyqq7r7099zvueQpilBUKpA25H1dZyzOGcoFCL6+wc5cqSH4eFi5cOLiMgbkSp1IjJuOBcQxynd3Ud45JFHWbp0KX/1V5czbdo06uvrK8vrFIsxr79+nIMHD7Bz5/McOfIqq1at0uLYIvKGplAnIuNIaTHtjo5LsNZw3333MX36dK6//p2sXPle4jimWBzmxRd/xb//++Ps2LGDo0ePcscd/2dkKNZr6FVE3rAU6s4xj8d4X5nTVj5a6loo/b70D4yqAiJn5U95opwpcJ38vTGeQiEmDHN8+s5Ps2/f/+b3B37P+vX/ypb/2Eocxzz33C62b9/BsWPHqMnnueiii1ix4q8Jw5A4jgkDe9rzV0T+VCf7lHzl9kh70sgPpQVV/ciZ+gh1binUnWOlBUFO3jI4DB4oQJbHmwxvMjIDod44RM4qtuVOnJFdSc6Y8TyQYVNDXS6PtYb2adP4u/es5LHH1uO955XDh8HD8fgYSZKQcwFknk987H8xcUILoQHjAn3YEvlviEdm6rsMLDEpARjIgpgwDQmyhFwWk+E1qf8vQI/pX5IBSzCyA0NC6eEuf24RkT+NL5W1/1iRblTeMyMva7lcyPIbljNt2rTSFnguIIoj0iQpdW2nKUuuXMI111xDLheSZmBUNxD5b8lG3uZcBs57vHd4DJiMMDUEmSfwaemYnHOq1I2hYa3ZK3JWucSNqp6dPrWBkbBnwDhik+FDiNMM5xxTZl3AgmuW8vITRxhOY4LGWuIsI/IxDW3NvOt9KzGNtQwBcZISOofXNsUi/99yicemYD3gQ0wAFovN8iMF9RCyGiy5sb7UcUmhbgzlE1XsRM4m8NFIxjLgzzC44Ecqed5jcWSxx2Jw1uNcng+s/Hu2fH8zkY/JohSLAwMdM2bx9isWk0s8WMhh8amvZEQR+fOFRJSihcVTwFGLJcMTAzVYEgKKQAQKduecQt0Y8kar9oqcTVJJWH+khDZy2BiI4pgwdHg8KSlz53Xw7r9Zzg+efBLvS8fCMMd7Vv41LW3NRFFCaA0uMCRpBubkdngi8ueJS/OOIANnLHHpR5wtHY8dRLZ0Xog+P51rCnXnQ2WPovLN0jZFqU3G7ppE3iAiU3rpN1DuG4eRpUc8HoOtNCgFpCRpAWfzpAChJ8oS/seH/4H/3Pk0vT29WGe5+NJZrHjPclKTYkJPaigN3xLhbHCyNd3rLUfkzxGZEGzp+Zojx4AphbvUhjgPQ4FlKBcyhKNJT69zTqHuPCkvYWKMIUlivPfUF1R6FjmbmjAuTZmzkCYJ1jniKCLM5Srbf3nvMTaA2FOfNZFFHuNGim6Z4ZLWWdx45Y187/HvUVdXx50fuoOJZgK+CKQGYwAH+TTEZx4CXyr7xaZ036NfKbORSoTxpeynop5IRT4cxvgcxjusL1CfryUgozYrEmR11BcKTHYJjekxnGstPc/knFGoOx+MgSQ9uS7PyFZFsR59kbNyiSt1kFtw3kJmyAoZr/b00draQj5vISs9u5IMbA58CFmc4ozDBGDqA65/zw08sfmHzJrXwSWXzyUOIc1ScBAYhzEGk/OlJgtKVUBXY4hHnrtBOTw6iwEyX1pDz+pNSaQizHLg7UixO4fzQArGOyhCDocpgvV6A/xL0KN6HnjvwVqIIUsy8vk8AydO4G1+rC9NpOqFhfJoqMdnpcJYX99RPnrbbXz5y19m4eL5kEAap1BniKOULPNYZ3AmKTXcZTB1dgcL3/Y2LrnkEoo2x9FCVBqz9Z5iVCQMA9I0IYpT6uvyFIsJQRAQBqVqHaQUijHegwuC0gw/A84p1ImU5SJfqmYDBk9/nECcUog8OZthbS1R0eBtzWnrusq5oFB3Hvg0K839MdDYVMtLBw+x4VvbeaVm8VhfmkjVq81inDF4n+JJ8T6jq+sQu44bvrvr92w5MIi1jjT1pEFIIfUEYYizlmKxiHMBQRCQpimN82+i2xj+pXNPKZw5S5qm5PN50jQlTVOcc2RZaUmUJEkIgpAoKgXAwDmstWRZNrI4vrYVExmtNh2GLAfekWOQvppacmTUJQPUxrX02ibclIs5bhzNGNxYX/A4o1B3Hng8aZLiLFzztou5alk7rdkVYLVQncjZZGmKtaV2OmsyMp+y/2A9uzZ38z9XXMAFMy/EGEeaZLggYKT8Bh7SLGNw4ATDw4VSV2zgaGxooLa+Aeccx44epVAsMrGtDecsGEt//3FOnBigtbWVurpaMIYoiunt6aa1tZV8vgbvM4wdGRZWqBM5yacjfa0WS5FjJk9ITL0fxGU1nDB5ii6gyb+MNRehZU3OLYW6c25k2YWRbw6wQUhoPFkKU5vyZLaGRhrJEY/xtYpUPz+y0V5ppDTBG8/AsVrqA2hrzPOWtiascURJQmDsyNPPg7H8et8+fvTDH/LjH/+Y146+xlumvoUbb/wbbvr79zN5yiS+961ONm7cyL99+9+YPnk6aeb51qMPcM89/8j69Y+wcuXfYozhuef2cNddd7F27VpmLVpI5j1xMaKmpkbjRyKjpMaDdxgslpAGQiwxNThslqPRBmRAkOXVJPEXoFB3jjmCk5uvWUNp1lwALsA6aDnlbFXqRM7GwMllgbBYDGR5jK/B+Dz4AIwlHwYkSYLBEMUxcVzgK/f+Mz09PXz6M5+lra2Nrq4uHnroIX7z0gG+8pWvsHjJMu79p6+x/8Bhps+4kBMDx9m+4zlq6ur4+fO/4G9vupksy3j62f+ivnEC09svBBNi8IT5AG+sKnUiozgY9UEnR8PId8iBg9rKiRee70t7U1CoE5Fxw7lSh2oYhjz77LM888wzfOMb3+Daa68lTVOuvPJKAG6//XY+/OEPM3fuXBYvXswvfvELrr76arq7u3n55Zd53/vex6FDhygUCsRxzNatW7nqqqtoamqq/C1rtXW2iFQXvSqJyLjhvS81MXjPnj17aGpqYu7cuZWglyQJCxYswFrLnj17qK2t5dprr2X37t0UCgVeffVV5syZw/vf/366u7sZHh7m0KFD7Nq1i2XLlo10wZ6cR6cqnYhUE4U6ERlXyl2rpc7VgFwuh7WlLtcgCKivrycMQ44dO4Yxhuuuu46enh6iKGLPnj3MmzePCy64gMHBQfbu3cvzzz/P7Nmzeetb31oJdQBZpm3+RKS6KNSJyBtGOVSNrpidfgxKQ6P5fJ5iscjg4CBxHFeWIjl69ChZltHW1oYxhosuuohcLse+ffvYs2cPS5Ysobm5mYkTJ/Kzn/2MXbt2sWLFCtra2sjn85W/pSqdiFQbhToRqXrlwFaujo0eZh0YGKBQKDA4OEihUKBQKGCtZenSpRSLRZ5//nmSJCGOY4aHh9mxYwfOORYuXIi1lpqaGmbMmMHGjRt57bXX6OjooKGhgcsvv5wtW7awd+9e3vnOdxKGYWUenTFGc+pEpOqoUUJE3jDKQSrLMoaGhti0aRNTp04FII5jwrC0UPCKFStYsGAB733ve7n//vsZGhqira2NI0eO8M1vfpNbbrmF+fPnVxYZvuaaa7j11lsrVbpcLsf8+fNZvXo1V199NZdddpnm0YlI1VOoE5GqNnpYtRyo6uvrqa2tZe3atXjvTznHe8/ll1/OxIkTuf322/nud7/Lxo0b6enpYdq0aXzwgx/k5ptvxnuPtRZrLXPmzGHmzJlcddVV1NaWFl249NJLmTdvHkuWLKkMu4qIVDPjR78aiohUmSzLKmGu/HJVKBRKC/+OHIvjmHw+j/e+8rsoigiCoFKNK/9fay0nTpygsbGxEuzKTRVpmlbOKW8ZVj5HFToRqXYKdSJS1c7UZVoOYnCyWaLcCDG6eeL0MDj63HLzxMk9XoPK37LWnlIBLFf0RESqmV6lRKQqlEPU6V+jK2SnV8vKQascwkaHL+dc5edy1a18PEkSwjCs/N0wDBkaGsIYg3OONE0xxpBlWaVq9+dct4jIWFClTkSqQrmbdfRwZzlUVevQZ7kLd/T1ZVlGEGi6soicf6rUiUjVKAc7OLkWXLUGOqASQNM0/YMhXxGR802hTkSqQnm+WxAEleaHN8JwZvmaT5+/JyJyvinUiUhVGT0E+8fmslWL0QsivxFCqIiMXwp1IlIVyhWv7u5ujh49ShAEp1TAyuecqSnhTLf/1O9nup8z/Xymv1+uLpa3H0uSRKFORMaMQp2IVI00TfnkJz/JF77wBYBKSBr9lWVZ5ev00FWe2za66WL0OeUh3TPd75m+Tr+fM/0uSRL6+vpYvXo1L774opokRGTMKNSJSFUYvYZc+XYulyNJEgqFAlEUUSwWiaLolFCXpilRFJEkCcYYoigCIIoioigijmOSJGFgYIAsyxgeHgZObcpI05T+/n6SJCFNU4rFYqUSNzQ0BJQWPC7fV3kv2TRNCcOQvr4+nnzyycr1iIiMBX2kFJGqtm/fPl555RUWLVrEL3/5S/r6+pg0aRILFy6kpqaG3bt3c/jwYSZMmMCcOXNoa2vDGMP+/fv57W9/y6JFi/jd735HT08PkyZNYsGCBYRhWFm7LooifvOb33Do0KHKThOzZs1i5syZ5HI5ampq8N4zMDDACy+8wPHjxwnDkPnz5zN16lSyLOPpp5+mWCyyadMmisUiy5YtG+uHTUTehBTqRKSqbd26lQcffJC3v/3t7N27lziOOXLkCLfeeisTJkygs7OTQqFAX18f73rXu3jggQdI05Snn36ar371qyxfvpxdu3ZhraW3t5cbbriBL33pS0yaNIk0TVm/fj3r1q2jtbUVgK6uLlpaWlizZg3XX389AL29vXz2s5/lhRdeoKmpif7+fmpra7n77ruZPXs2mzZtor+/nyeeeIIkSRTqRGRMaPhVRKpakiR0d3fT0NDAtm3b2L59Ox//+Me57777+NWvfsWGDRvYvn07a9euZdeuXezfv7/SYFGuvv3oRz/i2Wef5bHHHuPnP/853//+90mShJ07d3LvvfeyatUqnnrqKX7yk5/w1FNP0drayne+8x0A+vv7Wb16Nb/+9a/ZsGEDP/3pT9m6dStLly7lwQcfZPLkydxzzz20t7fz6KOP8sUvfnGMHzERebNSqBORqhaGIa2trXz0ox/FGEOapqxcuZLp06dz2223MWPGDAAWLlxIoVCgp6en8n+nTJnCHXfcUanCLV68mJtvvpkf/OAHRFFEe3s7Dz/8MO9+97uB0jy7yZMnc+WVV3L8+HG89/T09NDZ2clHPvIR5syZg7WWpqYmPve5z3HXXXeRz+eB0ry8QqFwnh8dEZGTNPwqIlUtTVOam5tpaWnBOYdzjlwuR2NjI83NzcCpuziUGyWyLKO5uZn29vbKOfl8no6ODjZv3szhw4fp6OigubkZYwyvvPIKXV1dPP744zzxxBNcccUVABw8eJBCocD8+fPJsgznHMYYpkyZUplTl8vlACr7y4qIjAWFOhEZN8rBrdyBms/nsdZWOmPL57z++us0NzfT1dXFunXr2LJlC21tbUyePJn29nbmzp1bWfbEOUccx0RRhHOu0hWbZRlDQ0Pk83miKPqD9etERM43hToRGTe894RhWAlXQ0ND9Pf309LSUglafX19tLe3Y63l29/+NuvWraOzs5NFixYRBAFpmvL1r3+dnTt3Yq2lrq4Oay0HDhzgHe94R6Va99JLL3H//ffzmc98BijN/cuyjDRNK8uyiIicT3rlEZFxpbzAsHOOrq4utm3bxuDgIAMDAxw4cIDOzk6WLVtWqdTNmDGDyZMnk8vlKsubdHZ2VoLhnDlzWLp0Kdu2bePgwYMUi0V6e3vZuHEj+/fvp6GhAecc1lqGh4e1Tp2IjBlV6kSkqhhj/mD48kzDmf+vYzU1NZXbdXV1bNiwgS1btlBbW8u+ffuYMmUKH/rQh3DOceONN7Jx40Y+9alPMW/ePHp7e+nr6+PCCy8kjmMGBwepra3la1/7GnfeeScf+9jHmD17Nr29vRw8eJBVq1bR0tLC0NAQTU1N3H333XzgAx/gE5/4xLl/YEREzkKVOhGpGsYYZs6cybRp0yrHJk6cyOzZs0/ZfiuXy3HxxRdXOk8BgiDg0ksvJY5jgiDAe09zczNr1qxhwoQJHDhwgOXLl/PYY48xceJEnHNcd911PP7447S0tPDMM88we/Zs1q9fz+c//3mampp4/fXXCcOQyy67jEceeYRly5axY8cOmpqaePjhh7npppswxjB16lTWrFmDtZbdu3ef18dMRKTMeO0+LSLjRHlPVoCHHnqIBx54gM2bN1c6YEVExjNV6kRk3MiyrNLt2tDQUGl8EBF5M1CoE5Fxo7w4cRAEdHR0cMstt9DU1DTWlyUicl5o+FVExo3y8Kv3niRJCMMQY4yWGBGRNwV1v4rIuJJlGUEQ4JyrBDwRkTcDVepERERExgGNSYiIiIiMAwp1IiIiIuOAQp2IiIjIOKBQJyIiIjIOKNSJiIiIjAMKdSIiIiLjgEKdiIiIyDigUCciIiIyDijUiYiIiIwDCnUiIiIi44BCnYiIiMg4oFAnIiIiMg4o1ImIiIiMAwp1IiIiIuPA/wXN0aLHIpvb0QAAAABJRU5ErkJggg==;" parent="1" vertex="1">
          <mxGeometry x="3" y="190" width="820" height="559.27" as="geometry" />
        </mxCell>
        <mxCell id="AnFSswDuglorV6KRGRRq-2" value="Modo oscuro" style="text;html=1;align=left;verticalAlign=middle;resizable=0;points=[];autosize=1;strokeColor=none;fillColor=none;fontSize=8;fontStyle=1;fontFamily=Tahoma;fontColor=#67B040;" parent="1" vertex="1">
          <mxGeometry x="435" y="250" width="70" height="20" as="geometry" />
        </mxCell>
        <mxCell id="AnFSswDuglorV6KRGRRq-3" value="Login" style="text;html=1;align=left;verticalAlign=middle;resizable=0;points=[];autosize=1;strokeColor=none;fillColor=none;fontSize=8;fontStyle=1;fontFamily=Tahoma;fontColor=#67B040;" parent="1" vertex="1">
          <mxGeometry x="435" y="265" width="50" height="20" as="geometry" />
        </mxCell>
        <mxCell id="AnFSswDuglorV6KRGRRq-4" value="Registro" style="text;html=1;align=left;verticalAlign=middle;resizable=0;points=[];autosize=1;strokeColor=none;fillColor=none;fontSize=8;fontStyle=1;fontFamily=Tahoma;fontColor=#67B040;" parent="1" vertex="1">
          <mxGeometry x="435" y="285" width="60" height="20" as="geometry" />
        </mxCell>
        <mxCell id="AnFSswDuglorV6KRGRRq-5" value="Mostrar &lt;br&gt;publicaciones" style="text;html=1;align=left;verticalAlign=middle;resizable=0;points=[];autosize=1;strokeColor=none;fillColor=none;fontSize=8;fontStyle=1;fontFamily=Tahoma;fontColor=#67B040;" parent="1" vertex="1">
          <mxGeometry x="435" y="301" width="80" height="30" as="geometry" />
        </mxCell>
        <mxCell id="AnFSswDuglorV6KRGRRq-6" value="Inscribirse &lt;br&gt;a un grupo" style="text;html=1;align=left;verticalAlign=middle;resizable=0;points=[];autosize=1;strokeColor=none;fillColor=none;fontSize=8;fontStyle=1;fontFamily=Tahoma;fontColor=#67B040;" parent="1" vertex="1">
          <mxGeometry x="435" y="331" width="70" height="30" as="geometry" />
        </mxCell>
        <mxCell id="AnFSswDuglorV6KRGRRq-7" value="Barra de bÃºsqueda" style="text;html=1;align=left;verticalAlign=middle;resizable=0;points=[];autosize=1;strokeColor=none;fillColor=none;fontSize=8;fontStyle=1;fontFamily=Tahoma;fontColor=#67B040;" parent="1" vertex="1">
          <mxGeometry x="530" y="371" width="100" height="20" as="geometry" />
        </mxCell>
        <mxCell id="AnFSswDuglorV6KRGRRq-8" value="Foto de perfil" style="text;html=1;align=left;verticalAlign=middle;resizable=0;points=[];autosize=1;strokeColor=none;fillColor=none;fontSize=8;fontStyle=1;fontFamily=Tahoma;" parent="1" vertex="1">
          <mxGeometry x="147" y="470" width="80" height="20" as="geometry" />
        </mxCell>
        <mxCell id="AnFSswDuglorV6KRGRRq-9" value="Cambiar contraseÃ±a" style="text;html=1;align=left;verticalAlign=middle;resizable=0;points=[];autosize=1;strokeColor=none;fillColor=none;fontSize=8;fontStyle=1;fontFamily=Tahoma;" parent="1" vertex="1">
          <mxGeometry x="435" y="470" width="100" height="20" as="geometry" />
        </mxCell>
        <mxCell id="AnFSswDuglorV6KRGRRq-10" value="Nombre de usuario" style="text;html=1;align=left;verticalAlign=middle;resizable=0;points=[];autosize=1;strokeColor=none;fillColor=none;fontSize=8;fontStyle=1;fontFamily=Tahoma;" parent="1" vertex="1">
          <mxGeometry x="147" y="510" width="100" height="20" as="geometry" />
        </mxCell>
        <mxCell id="AnFSswDuglorV6KRGRRq-11" value="Chat asesor-alumno" style="text;html=1;align=left;verticalAlign=middle;resizable=0;points=[];autosize=1;strokeColor=none;fillColor=none;fontSize=8;fontStyle=1;fontFamily=Tahoma;" parent="1" vertex="1">
          <mxGeometry x="147" y="490" width="100" height="20" as="geometry" />
        </mxCell>
        <mxCell id="AnFSswDuglorV6KRGRRq-12" value="Mostrar grupos &lt;br&gt;inscritos" style="text;html=1;align=left;verticalAlign=middle;resizable=0;points=[];autosize=1;strokeColor=none;fillColor=none;fontSize=8;fontStyle=1;fontFamily=Tahoma;" parent="1" vertex="1">
          <mxGeometry x="435" y="361" width="80" height="30" as="geometry" />
        </mxCell>
        <mxCell id="AnFSswDuglorV6KRGRRq-13" value="Probar firefox, safari, edge" style="text;html=1;align=left;verticalAlign=middle;resizable=0;points=[];autosize=1;strokeColor=none;fillColor=none;fontSize=8;fontStyle=1;fontFamily=Tahoma;" parent="1" vertex="1">
          <mxGeometry x="147" y="291" width="130" height="20" as="geometry" />
        </mxCell>
        <mxCell id="pMmFFd9uSRV38CBssX__-7" value="Publicar grupo" style="text;html=1;align=left;verticalAlign=middle;resizable=0;points=[];autosize=1;strokeColor=none;fillColor=none;fontSize=8;fontStyle=1;fontFamily=Tahoma;fontColor=#67B040;" parent="1" vertex="1">
          <mxGeometry x="435" y="391" width="80" height="20" as="geometry" />
        </mxCell>
        <mxCell id="pMmFFd9uSRV38CBssX__-8" value="Mostrar grupos &lt;br&gt;creados" style="text;html=1;align=left;verticalAlign=middle;resizable=0;points=[];autosize=1;strokeColor=none;fillColor=none;fontSize=8;fontStyle=1;fontFamily=Tahoma;" parent="1" vertex="1">
          <mxGeometry x="435" y="410" width="80" height="30" as="geometry" />
        </mxCell>
        <mxCell id="pMmFFd9uSRV38CBssX__-9" value="Probar celular" style="text;html=1;align=left;verticalAlign=middle;resizable=0;points=[];autosize=1;strokeColor=none;fillColor=none;fontSize=8;fontStyle=1;fontFamily=Tahoma;" parent="1" vertex="1">
          <mxGeometry x="147" y="311" width="80" height="20" as="geometry" />
        </mxCell>
        <mxCell id="pMmFFd9uSRV38CBssX__-10" value="DiseÃ±o responsivo" style="text;html=1;align=left;verticalAlign=middle;resizable=0;points=[];autosize=1;strokeColor=none;fillColor=none;fontSize=8;fontStyle=1;fontFamily=Tahoma;fontColor=#67B040;" parent="1" vertex="1">
          <mxGeometry x="435" y="440" width="100" height="20" as="geometry" />
        </mxCell>
        <mxCell id="kxyCjFFZjiFaHRbuL51u-1" value="Ver alumnos (admin)" style="text;html=1;align=left;verticalAlign=middle;resizable=0;points=[];autosize=1;strokeColor=none;fillColor=none;fontSize=8;fontStyle=1;fontFamily=Tahoma;fontColor=#67B040;" parent="1" vertex="1">
          <mxGeometry x="530" y="250" width="110" height="20" as="geometry" />
        </mxCell>
        <mxCell id="kxyCjFFZjiFaHRbuL51u-2" value="Ver publicaciones &lt;br&gt;(admin)" style="text;html=1;align=left;verticalAlign=middle;resizable=0;points=[];autosize=1;strokeColor=none;fillColor=none;fontSize=8;fontStyle=1;fontFamily=Tahoma;fontColor=#67B040;" parent="1" vertex="1">
          <mxGeometry x="530" y="265" width="90" height="30" as="geometry" />
        </mxCell>
        <mxCell id="kxyCjFFZjiFaHRbuL51u-4" value="Borrar publicaciones&lt;br&gt;(admin)" style="text;html=1;align=left;verticalAlign=middle;resizable=0;points=[];autosize=1;strokeColor=none;fillColor=none;fontSize=8;fontStyle=1;fontFamily=Tahoma;fontColor=#67B040;" parent="1" vertex="1">
          <mxGeometry x="530" y="291" width="110" height="30" as="geometry" />
        </mxCell>
        <mxCell id="kxyCjFFZjiFaHRbuL51u-6" value="Ver alumnos &lt;br&gt;(admin)" style="text;html=1;align=left;verticalAlign=middle;resizable=0;points=[];autosize=1;strokeColor=none;fillColor=none;fontSize=8;fontStyle=1;fontFamily=Tahoma;fontColor=#67B040;" parent="1" vertex="1">
          <mxGeometry x="530" y="321" width="70" height="30" as="geometry" />
        </mxCell>
        <mxCell id="kxyCjFFZjiFaHRbuL51u-7" value="Barra de bÃºsqueda &lt;br&gt;(admin)" style="text;html=1;align=left;verticalAlign=middle;resizable=0;points=[];autosize=1;strokeColor=none;fillColor=none;fontSize=8;fontStyle=1;fontFamily=Tahoma;fontColor=#67B040;" parent="1" vertex="1">
          <mxGeometry x="530" y="346" width="100" height="30" as="geometry" />
        </mxCell>
        <mxCell id="Kw_4Y5dnNF6UmthHvdNj-3" value="Cambiar opciÃ³n de asesor" style="text;html=1;align=left;verticalAlign=middle;resizable=0;points=[];autosize=1;strokeColor=none;fillColor=none;fontSize=8;fontStyle=1;fontFamily=Tahoma;" vertex="1" parent="1">
          <mxGeometry x="530" y="391" width="130" height="20" as="geometry" />
        </mxCell>
        <mxCell id="Kw_4Y5dnNF6UmthHvdNj-4" value="Modificar descripciÃ³n&lt;br&gt;de cursos creados" style="text;html=1;align=left;verticalAlign=middle;resizable=0;points=[];autosize=1;strokeColor=none;fillColor=none;fontSize=8;fontStyle=1;fontFamily=Tahoma;" vertex="1" parent="1">
          <mxGeometry x="435" y="490" width="110" height="30" as="geometry" />
        </mxCell>
        <mxCell id="Kw_4Y5dnNF6UmthHvdNj-5" value="Borrar curso creado" style="text;html=1;align=left;verticalAlign=middle;resizable=0;points=[];autosize=1;strokeColor=none;fillColor=none;fontSize=8;fontStyle=1;fontFamily=Tahoma;" vertex="1" parent="1">
          <mxGeometry x="530" y="410" width="100" height="20" as="geometry" />
        </mxCell>
        <mxCell id="Kw_4Y5dnNF6UmthHvdNj-6" value="Cambiar nombre" style="text;html=1;align=left;verticalAlign=middle;resizable=0;points=[];autosize=1;strokeColor=none;fillColor=none;fontSize=8;fontStyle=1;fontFamily=Tahoma;" vertex="1" parent="1">
          <mxGeometry x="435" y="520" width="90" height="20" as="geometry" />
        </mxCell>
      </root>
    </mxGraphModel>
  </diagram>
</mxfile>
